<svg width="14" height="14" viewBox="0 0 14 14" fill="none" xmlns="http://www.w3.org/2000/svg">
<path d="M3.27298 13.6855H0.391133V4.72359H3.27298V13.6855ZM1.83206 3.46893C1.43461 3.46893 1.05345 3.30527 0.772413 3.01395C0.491379 2.72263 0.333496 2.32752 0.333496 1.91553C0.333496 1.50354 0.491379 1.10843 0.772413 0.817111C1.05345 0.525792 1.43461 0.362131 1.83206 0.362131C2.0431 0.337321 2.25682 0.358998 2.45922 0.425744C2.66162 0.492489 2.84813 0.602798 3.00656 0.749446C3.16498 0.896095 3.29173 1.07578 3.37852 1.27673C3.46531 1.47768 3.51017 1.69536 3.51017 1.91553C3.51017 2.1357 3.46531 2.35338 3.37852 2.55433C3.29173 2.75528 3.16498 2.93496 3.00656 3.08161C2.84813 3.22826 2.66162 3.33857 2.45922 3.40531C2.25682 3.47206 2.0431 3.49374 1.83206 3.46893ZM13.6668 13.6855H10.785V8.87595C10.785 7.67107 10.3719 6.88441 9.32485 6.88441C9.0008 6.88687 8.68526 6.99223 8.42075 7.1863C8.15625 7.38037 7.95548 7.65382 7.8455 7.9698C7.77033 8.20384 7.73776 8.45033 7.74944 8.69671V13.6755H4.8676C4.8676 13.6755 4.8676 5.53017 4.8676 4.71364H7.74944V5.97826C8.01124 5.50737 8.392 5.11943 8.85073 4.85623C9.30946 4.59303 9.82876 4.46455 10.3527 4.48461C12.2739 4.48461 13.6668 5.76915 13.6668 8.52743V13.6855Z" fill="#51994B"/>
</svg>
