<svg width="14" height="12" viewBox="0 0 14 12" fill="none" xmlns="http://www.w3.org/2000/svg">
<path d="M11.6668 0.685425H2.3335C1.80306 0.685425 1.29436 0.896139 0.919283 1.27121C0.54421 1.64628 0.333496 2.15499 0.333496 2.68542V9.35209C0.333496 9.88252 0.54421 10.3912 0.919283 10.7663C1.29436 11.1414 1.80306 11.3521 2.3335 11.3521H11.6668C12.1973 11.3521 12.706 11.1414 13.081 10.7663C13.4561 10.3912 13.6668 9.88252 13.6668 9.35209V2.68542C13.6668 2.15499 13.4561 1.64628 13.081 1.27121C12.706 0.896139 12.1973 0.685425 11.6668 0.685425ZM11.3935 2.01876L7.4735 5.93876C7.41152 6.00124 7.33779 6.05084 7.25655 6.08469C7.17531 6.11853 7.08817 6.13596 7.00016 6.13596C6.91216 6.13596 6.82502 6.11853 6.74378 6.08469C6.66254 6.05084 6.5888 6.00124 6.52683 5.93876L2.60683 2.01876H11.3935ZM12.3335 9.35209C12.3335 9.5289 12.2633 9.69847 12.1382 9.8235C12.0132 9.94852 11.8436 10.0188 11.6668 10.0188H2.3335C2.15669 10.0188 1.98712 9.94852 1.86209 9.8235C1.73707 9.69847 1.66683 9.5289 1.66683 9.35209V2.95876L5.58683 6.87876C5.96183 7.25329 6.47016 7.46366 7.00016 7.46366C7.53016 7.46366 8.0385 7.25329 8.4135 6.87876L12.3335 2.95876V9.35209Z" fill="#51994B"/>
</svg>
