<svg width="14" height="12" viewBox="0 0 14 12" fill="none" xmlns="http://www.w3.org/2000/svg">
<path d="M11.6654 0.666656H2.33203C1.8016 0.666656 1.29289 0.87737 0.917818 1.25244C0.542745 1.62752 0.332031 2.13622 0.332031 2.66666V9.33332C0.332031 9.86376 0.542745 10.3725 0.917818 10.7475C1.29289 11.1226 1.8016 11.3333 2.33203 11.3333H11.6654C12.1958 11.3333 12.7045 11.1226 13.0796 10.7475C13.4547 10.3725 13.6654 9.86376 13.6654 9.33332V2.66666C13.6654 2.13622 13.4547 1.62752 13.0796 1.25244C12.7045 0.87737 12.1958 0.666656 11.6654 0.666656ZM11.392 1.99999L7.47203 5.91999C7.41006 5.98248 7.33632 6.03207 7.25508 6.06592C7.17384 6.09976 7.08671 6.11719 6.9987 6.11719C6.91069 6.11719 6.82355 6.09976 6.74231 6.06592C6.66107 6.03207 6.58734 5.98248 6.52536 5.91999L2.60536 1.99999H11.392ZM12.332 9.33332C12.332 9.51013 12.2618 9.6797 12.1368 9.80473C12.0117 9.92975 11.8422 9.99999 11.6654 9.99999H2.33203C2.15522 9.99999 1.98565 9.92975 1.86063 9.80473C1.7356 9.6797 1.66536 9.51013 1.66536 9.33332V2.93999L5.58536 6.85999C5.96037 7.23452 6.4687 7.4449 6.9987 7.4449C7.5287 7.4449 8.03703 7.23452 8.41203 6.85999L12.332 2.93999V9.33332Z" fill="white"/>
</svg>
