<svg width="14" height="14" viewBox="0 0 14 14" fill="none" xmlns="http://www.w3.org/2000/svg">
<path d="M10.9987 6.21334C10.8219 6.21334 10.6523 6.28358 10.5273 6.40861C10.4023 6.53363 10.332 6.7032 10.332 6.88001V11.6667C10.332 11.8435 10.2618 12.0131 10.1368 12.1381C10.0117 12.2631 9.84218 12.3333 9.66537 12.3333H2.33203C2.15522 12.3333 1.98565 12.2631 1.86063 12.1381C1.7356 12.0131 1.66536 11.8435 1.66536 11.6667V4.33334C1.66536 4.15653 1.7356 3.98696 1.86063 3.86194C1.98565 3.73691 2.15522 3.66668 2.33203 3.66668H7.1187C7.29551 3.66668 7.46508 3.59644 7.5901 3.47141C7.71513 3.34639 7.78537 3.17682 7.78537 3.00001C7.78537 2.8232 7.71513 2.65363 7.5901 2.52861C7.46508 2.40358 7.29551 2.33334 7.1187 2.33334H2.33203C1.8016 2.33334 1.29289 2.54406 0.917818 2.91913C0.542745 3.2942 0.332031 3.80291 0.332031 4.33334V11.6667C0.332031 12.1971 0.542745 12.7058 0.917818 13.0809C1.29289 13.456 1.8016 13.6667 2.33203 13.6667H9.66537C10.1958 13.6667 10.7045 13.456 11.0796 13.0809C11.4547 12.7058 11.6654 12.1971 11.6654 11.6667V6.88001C11.6654 6.7032 11.5951 6.53363 11.4701 6.40861C11.3451 6.28358 11.1755 6.21334 10.9987 6.21334ZM13.612 0.746677C13.5444 0.583777 13.4149 0.454327 13.252 0.386677C13.1719 0.352516 13.0858 0.334397 12.9987 0.333344H8.9987C8.82189 0.333344 8.65232 0.403581 8.52729 0.528606C8.40227 0.65363 8.33203 0.823199 8.33203 1.00001C8.33203 1.17682 8.40227 1.34639 8.52729 1.47141C8.65232 1.59644 8.82189 1.66668 8.9987 1.66668H11.392L4.52536 8.52668C4.46288 8.58865 4.41328 8.66239 4.37944 8.74363C4.34559 8.82487 4.32817 8.912 4.32817 9.00001C4.32817 9.08802 4.34559 9.17516 4.37944 9.2564C4.41328 9.33763 4.46288 9.41137 4.52536 9.47334C4.58734 9.53583 4.66107 9.58543 4.74231 9.61927C4.82355 9.65312 4.91069 9.67054 4.9987 9.67054C5.08671 9.67054 5.17384 9.65312 5.25508 9.61927C5.33632 9.58543 5.41006 9.53583 5.47203 9.47334L12.332 2.60668V5.00001C12.332 5.17682 12.4023 5.34639 12.5273 5.47141C12.6523 5.59644 12.8219 5.66668 12.9987 5.66668C13.1755 5.66668 13.3451 5.59644 13.4701 5.47141C13.5951 5.34639 13.6654 5.17682 13.6654 5.00001V1.00001C13.6643 0.912892 13.6462 0.826825 13.612 0.746677Z" fill="white"/>
</svg>
