<svg width="14" height="12" viewBox="0 0 14 12" fill="none" xmlns="http://www.w3.org/2000/svg">
<path d="M13.6668 1.88548C13.1657 2.10288 12.6358 2.24659 12.0935 2.31215C12.6656 1.97036 13.0943 1.43267 13.3002 0.798817C12.7625 1.11886 12.174 1.34435 11.5602 1.46548C11.1499 1.02053 10.6035 0.724347 10.0067 0.623384C9.40993 0.522421 8.79653 0.622389 8.26269 0.907609C7.72885 1.19283 7.30478 1.64717 7.05699 2.19937C6.8092 2.75158 6.75169 3.37041 6.8935 3.95882C5.80645 3.90383 4.74312 3.62079 3.7726 3.12806C2.80207 2.63533 1.94606 1.94395 1.26016 1.09882C1.01959 1.51893 0.893176 1.9947 0.893496 2.47882C0.892643 2.9284 1.00297 3.37123 1.21467 3.76786C1.42636 4.16449 1.73284 4.50262 2.10683 4.75215C1.67215 4.74032 1.24675 4.62368 0.866829 4.41215V4.44548C0.870087 5.07541 1.09083 5.68488 1.49171 6.17079C1.89259 6.65671 2.449 6.98924 3.06683 7.11215C2.829 7.18453 2.58208 7.22269 2.3335 7.22548C2.16142 7.22347 1.98978 7.20787 1.82016 7.17882C1.9961 7.72069 2.33658 8.19425 2.79421 8.53359C3.25185 8.87293 3.80388 9.06118 4.3735 9.07215C3.41163 9.82899 2.22409 10.2421 1.00016 10.2455C0.77732 10.2462 0.554653 10.2329 0.333496 10.2055C1.58312 11.0123 3.03937 11.4406 4.52683 11.4388C5.55329 11.4495 6.57159 11.2555 7.52224 10.8682C8.47289 10.4809 9.33684 9.90807 10.0636 9.18315C10.7904 8.45822 11.3655 7.59574 11.7552 6.64609C12.1449 5.69643 12.3415 4.67863 12.3335 3.65215C12.3335 3.53882 12.3335 3.41882 12.3335 3.29882C12.8566 2.90869 13.3078 2.43043 13.6668 1.88548Z" fill="#51994B"/>
</svg>
