<svg width="24" height="24" viewBox="0 0 24 24" xmlns="http://www.w3.org/2000/svg">
<path d="M11.301 5.63399L16.668 11.0009L4.93708 10.9939C4.67077 10.9939 4.41538 11.0996 4.22708 11.2879C4.03877 11.4763 3.93298 11.7316 3.93298 11.9979C3.93298 12.2642 4.03877 12.5196 4.22708 12.7079C4.41538 12.8963 4.67077 13.002 4.93707 13.002L16.668 12.995L11.301 18.3619C11.1135 18.5494 11.0081 18.8038 11.0081 19.069C11.0081 19.3342 11.1135 19.5886 11.301 19.7761C11.4886 19.9637 11.7429 20.069 12.0081 20.069C12.2734 20.069 12.5277 19.9637 12.7152 19.7761L19.7863 12.7051C19.8776 12.6115 19.9497 12.501 19.9984 12.3798C20.0995 12.1353 20.0995 11.8606 19.9984 11.6161C19.9497 11.4949 19.8776 11.3844 19.7863 11.2908L12.7152 4.21977C12.5277 4.03224 12.2734 3.92688 12.0081 3.92688C11.7429 3.92688 11.4886 4.03224 11.301 4.21977C11.1135 4.40731 11.0081 4.66166 11.0081 4.92688C11.0081 5.1921 11.1135 5.44645 11.301 5.63399Z"/>
</svg>
