<svg width="58" height="54" viewBox="0 0 58 54" fill="none" xmlns="http://www.w3.org/2000/svg">
<g id="Group">
<g id="Group_2">
<path id="Vector" d="M15.6801 7.13967C16.0706 6.74914 16.7038 6.74914 17.0943 7.13966L24.0634 14.1087C24.4539 14.4993 24.4539 15.1324 24.0634 15.5229C23.6729 15.9135 23.0397 15.9135 22.6492 15.523L15.6801 8.55388C15.2896 8.16336 15.2896 7.53019 15.6801 7.13967Z" fill="url(#paint0_linear_742_6516)"/>
<path id="Vector_2" d="M19.913 7.19943C20.4653 7.19943 20.913 7.64715 20.913 8.19943V11.3721C20.913 11.9244 20.4653 12.3721 19.913 12.3721H16.7402C16.1879 12.3721 15.7402 11.9244 15.7402 11.3721C15.7402 10.8198 16.1879 10.3721 16.7402 10.3721L18.9122 10.3714L18.913 8.19943C18.913 7.6866 19.2991 7.26393 19.7964 7.20616L19.913 7.19943Z" fill="url(#paint1_linear_742_6516)"/>
<path id="Vector_3" d="M23.5264 9.96603C24.0787 9.96603 24.5264 10.4137 24.5264 10.966V14.8158C24.5264 15.3681 24.0787 15.8158 23.5264 15.8158C22.9741 15.8158 22.5264 15.3681 22.5264 14.8158V10.966C22.5264 10.4137 22.9741 9.96603 23.5264 9.96603Z" fill="url(#paint2_linear_742_6516)"/>
<path id="Vector_4" d="M48.48 10.4496C49.0323 10.4496 49.48 10.8973 49.48 11.4496V30.3461C49.48 30.8984 49.0323 31.3461 48.48 31.3461C47.9277 31.3461 47.48 30.8984 47.48 30.3461V11.4496C47.48 10.8973 47.9277 10.4496 48.48 10.4496Z" fill="url(#paint3_linear_742_6516)"/>
<path id="Vector_5" d="M45.5292 13.4846C45.9197 13.0941 46.5529 13.0941 46.9434 13.4846L48.4793 15.0207L50.0161 13.4846C50.3766 13.1241 50.9438 13.0964 51.3361 13.4014L51.4303 13.4846C51.8209 13.8751 51.8209 14.5083 51.4304 14.8988L49.187 17.1423C48.7964 17.5328 48.1633 17.5328 47.7727 17.1423L45.5292 14.8988C45.1387 14.5083 45.1387 13.8751 45.5292 13.4846Z" fill="url(#paint4_linear_742_6516)"/>
<path id="Vector_6" d="M44.9306 17.996C45.3211 17.6055 45.9543 17.6055 46.3448 17.996L48.4797 20.1311L50.6149 17.996C50.9754 17.6355 51.5426 17.6078 51.9349 17.9128L52.0291 17.996C52.4196 18.3865 52.4196 19.0197 52.0291 19.4102L49.187 22.2524C48.7965 22.643 48.1633 22.643 47.7728 22.2524L44.9306 19.4102C44.5401 19.0197 44.5401 18.3865 44.9306 17.996Z" fill="url(#paint5_linear_742_6516)"/>
<path id="Vector_7" d="M37.2031 36.1022C37.7554 36.1022 38.2031 36.5499 38.2031 37.1022C38.2031 37.6545 37.7554 38.1022 37.2031 38.1022H26.7031C26.1508 38.1022 25.7031 37.6545 25.7031 37.1022C25.7031 36.5499 26.1508 36.1022 26.7031 36.1022H37.2031Z" fill="url(#paint6_linear_742_6516)"/>
<path id="Vector_8" d="M37.2031 32.4929C37.7554 32.4929 38.2031 32.9406 38.2031 33.4929C38.2031 34.0452 37.7554 34.4929 37.2031 34.4929H26.7031C26.1508 34.4929 25.7031 34.0452 25.7031 33.4929C25.7031 32.9406 26.1508 32.4929 26.7031 32.4929H37.2031Z" fill="url(#paint7_linear_742_6516)"/>
<path id="Vector_9" d="M36.0928 22.0392C36.3412 22.0392 36.5807 22.1317 36.7647 22.2986L41.3386 26.4478C42.3474 27.363 42.9228 28.6617 42.9228 30.0238V42.9414H40.9228V30.0238C40.9228 29.226 40.5858 28.4652 39.9948 27.9292L35.7073 24.0392H8.03431L3.74827 27.9292C3.20658 28.4206 2.87825 29.1007 2.82729 29.8252L2.82031 30.0238V49.4354C2.82031 50.3932 3.59683 51.1697 4.55469 51.1697H24.2615V53.1697H4.55469C2.49227 53.1697 0.820312 51.4978 0.820312 49.4354V30.0238C0.820312 28.6617 1.39566 27.363 2.40449 26.4479L6.97844 22.2986C7.16242 22.1317 7.40193 22.0392 7.65033 22.0392H36.0928Z" fill="url(#paint8_linear_742_6516)"/>
<path id="Vector_10" d="M9.43555 3.19133C9.06185 1.79707 10.3376 0.521271 11.7319 0.894865L23.1309 3.94937C28.0616 5.27053 30.7058 10.4607 29.1185 15.1373C28.9808 15.543 28.6 15.8159 28.1716 15.8159H13.6042C13.175 15.8159 12.7938 15.5422 12.6566 15.1356C12.5903 14.939 12.5364 14.7642 12.4898 14.5897L9.43555 3.19133ZM11.4227 2.88204L14.3527 13.815H27.4147L27.4594 13.6071C28.0876 10.3373 26.1873 6.96856 22.8434 5.94719L22.6132 5.88122L11.4227 2.88204Z" fill="url(#paint9_linear_742_6516)"/>
<path id="Vector_11" d="M34.4521 13.8158C35.9105 13.8158 37.0927 14.9981 37.0927 16.4564V23.0393C37.0927 23.5916 36.645 24.0393 36.0927 24.0393H7.65039C7.09811 24.0393 6.65039 23.5916 6.65039 23.0393V16.4564C6.65039 14.9981 7.83268 13.8158 9.29102 13.8158H34.4521ZM34.4521 15.8158H9.29102C8.93725 15.8158 8.65039 16.1027 8.65039 16.4564V22.0388H35.0924L35.0927 16.4564C35.0927 16.1348 34.8557 15.8685 34.5468 15.8228L34.4521 15.8158Z" fill="url(#paint10_linear_742_6516)"/>
<path id="Vector_12" d="M16.0938 31.3593C17.5521 31.3593 18.7344 32.5416 18.7344 33.9999V44.2309C18.7344 45.6892 17.5521 46.8715 16.0938 46.8715H1.82031C1.26803 46.8715 0.820312 46.4238 0.820312 45.8715V32.3593C0.820312 31.807 1.26803 31.3593 1.82031 31.3593H16.0938ZM2.82031 44.8713L16.0938 44.8715C16.4475 44.8715 16.7344 44.5846 16.7344 44.2309V33.9999C16.7344 33.6462 16.4475 33.3593 16.0938 33.3593H2.82031V44.8713Z" fill="url(#paint11_linear_742_6516)"/>
<path id="Vector_13" d="M16.0938 31.3593C17.5521 31.3593 18.7344 32.5416 18.7344 33.9999V44.2309C18.7344 45.6892 17.5521 46.8715 16.0938 46.8715H9.77734C9.22506 46.8715 8.77734 46.4238 8.77734 45.8715V32.3593C8.77734 31.807 9.22506 31.3593 9.77734 31.3593H16.0938ZM10.7773 44.8713L16.0938 44.8715C16.4475 44.8715 16.7344 44.5846 16.7344 44.2309V33.9999C16.7344 33.6462 16.4475 33.3593 16.0938 33.3593H10.7773V44.8713Z" fill="url(#paint12_linear_742_6516)"/>
<path id="Vector_14" d="M13.6876 17.9275C14.2399 17.9275 14.6876 18.3752 14.6876 18.9275C14.6876 19.4798 14.2399 19.9275 13.6876 19.9275H7.65039C7.09811 19.9275 6.65039 19.4798 6.65039 18.9275C6.65039 18.3752 7.09811 17.9275 7.65039 17.9275H13.6876Z" fill="url(#paint13_linear_742_6516)"/>
<path id="Vector_15" d="M36.0926 17.9275C36.6449 17.9275 37.0926 18.3752 37.0926 18.9275C37.0926 19.4798 36.6449 19.9275 36.0926 19.9275H17.5156C16.9633 19.9275 16.5156 19.4798 16.5156 18.9275C16.5156 18.3752 16.9633 17.9275 17.5156 17.9275H36.0926Z" fill="url(#paint14_linear_742_6516)"/>
<path id="Vector_16" d="M45.1877 41.9415C45.74 41.9415 46.1877 42.3892 46.1877 42.9415C46.1877 43.4938 45.74 43.9415 45.1877 43.9415H26.9961C26.0383 43.9415 25.2617 44.718 25.2617 45.6758V51.1695L55.0861 51.1699C55.125 51.1699 55.1583 51.1463 55.1725 51.1126L55.1799 51.0761V45.6758C55.1799 44.718 54.4034 43.9415 53.4455 43.9415H49.0158C48.4635 43.9415 48.0158 43.4938 48.0158 42.9415C48.0158 42.3892 48.4635 41.9415 49.0158 41.9415H53.4455C55.5079 41.9415 57.1799 43.6135 57.1799 45.6758V51.0761C57.1799 52.2325 56.2425 53.1699 55.0861 53.1699H24.2617C23.7094 53.1699 23.2617 52.7222 23.2617 52.1699V45.6758C23.2617 43.6135 24.9337 41.9415 26.9961 41.9415H45.1877Z" fill="url(#paint15_linear_742_6516)"/>
<path id="Vector_17" d="M46.8564 3.24213C47.578 1.99206 49.3823 1.99206 50.1039 3.24204L56.0045 13.462C59.3487 19.2543 55.1685 26.4945 48.4801 26.4945C41.7918 26.4945 37.6116 19.2543 40.9558 13.462L42.3002 11.1333C42.5763 10.655 43.1879 10.4912 43.6662 10.7673C44.1445 11.0434 44.3084 11.655 44.0323 12.1333L42.6879 14.462C40.1135 18.9209 43.3314 24.4945 48.4801 24.4945C53.6289 24.4945 56.8468 18.9209 54.2724 14.462L48.4803 4.42958L45.9464 8.8182C45.6899 9.26233 45.1443 9.43534 44.6847 9.2367L44.5803 9.18421C44.102 8.90806 43.9382 8.29647 44.2143 7.81818L46.8564 3.24213Z" fill="url(#paint16_linear_742_6516)"/>
</g>
</g>
<defs>
<linearGradient id="paint0_linear_742_6516" x1="10.9027" y1="6.84677" x2="10.9027" y2="15.8158" gradientUnits="userSpaceOnUse">
<stop stop-color="#59A852"/>
<stop offset="1" stop-color="#3F773A"/>
</linearGradient>
<linearGradient id="paint1_linear_742_6516" x1="13.1538" y1="7.19943" x2="13.1538" y2="12.3721" gradientUnits="userSpaceOnUse">
<stop stop-color="#59A852"/>
<stop offset="1" stop-color="#3F773A"/>
</linearGradient>
<linearGradient id="paint2_linear_742_6516" x1="21.5264" y1="9.96603" x2="21.5264" y2="15.8158" gradientUnits="userSpaceOnUse">
<stop stop-color="#59A852"/>
<stop offset="1" stop-color="#3F773A"/>
</linearGradient>
<linearGradient id="paint3_linear_742_6516" x1="46.48" y1="10.4496" x2="46.48" y2="31.3461" gradientUnits="userSpaceOnUse">
<stop stop-color="#59A852"/>
<stop offset="1" stop-color="#3F773A"/>
</linearGradient>
<linearGradient id="paint4_linear_742_6516" x1="41.9929" y1="13.1917" x2="41.9929" y2="17.4352" gradientUnits="userSpaceOnUse">
<stop stop-color="#59A852"/>
<stop offset="1" stop-color="#3F773A"/>
</linearGradient>
<linearGradient id="paint5_linear_742_6516" x1="40.7955" y1="17.7031" x2="40.7955" y2="22.5453" gradientUnits="userSpaceOnUse">
<stop stop-color="#59A852"/>
<stop offset="1" stop-color="#3F773A"/>
</linearGradient>
<linearGradient id="paint6_linear_742_6516" x1="19.4531" y1="36.1022" x2="19.4531" y2="38.1022" gradientUnits="userSpaceOnUse">
<stop stop-color="#59A852"/>
<stop offset="1" stop-color="#3F773A"/>
</linearGradient>
<linearGradient id="paint7_linear_742_6516" x1="19.4531" y1="32.4929" x2="19.4531" y2="34.4929" gradientUnits="userSpaceOnUse">
<stop stop-color="#59A852"/>
<stop offset="1" stop-color="#3F773A"/>
</linearGradient>
<linearGradient id="paint8_linear_742_6516" x1="-20.2309" y1="22.0392" x2="-20.2309" y2="53.1697" gradientUnits="userSpaceOnUse">
<stop stop-color="#59A852"/>
<stop offset="1" stop-color="#3F773A"/>
</linearGradient>
<linearGradient id="paint9_linear_742_6516" x1="-0.734965" y1="0.828979" x2="-0.734965" y2="15.8159" gradientUnits="userSpaceOnUse">
<stop stop-color="#59A852"/>
<stop offset="1" stop-color="#3F773A"/>
</linearGradient>
<linearGradient id="paint10_linear_742_6516" x1="-8.57076" y1="13.8158" x2="-8.57076" y2="24.0393" gradientUnits="userSpaceOnUse">
<stop stop-color="#59A852"/>
<stop offset="1" stop-color="#3F773A"/>
</linearGradient>
<linearGradient id="paint11_linear_742_6516" x1="-8.13673" y1="31.3593" x2="-8.13673" y2="46.8715" gradientUnits="userSpaceOnUse">
<stop stop-color="#59A852"/>
<stop offset="1" stop-color="#3F773A"/>
</linearGradient>
<linearGradient id="paint12_linear_742_6516" x1="3.79881" y1="31.3593" x2="3.79881" y2="46.8715" gradientUnits="userSpaceOnUse">
<stop stop-color="#59A852"/>
<stop offset="1" stop-color="#3F773A"/>
</linearGradient>
<linearGradient id="paint13_linear_742_6516" x1="2.63179" y1="17.9275" x2="2.63179" y2="19.9275" gradientUnits="userSpaceOnUse">
<stop stop-color="#59A852"/>
<stop offset="1" stop-color="#3F773A"/>
</linearGradient>
<linearGradient id="paint14_linear_742_6516" x1="6.22713" y1="17.9275" x2="6.22713" y2="19.9275" gradientUnits="userSpaceOnUse">
<stop stop-color="#59A852"/>
<stop offset="1" stop-color="#3F773A"/>
</linearGradient>
<linearGradient id="paint15_linear_742_6516" x1="6.30262" y1="41.9415" x2="6.30262" y2="53.1699" gradientUnits="userSpaceOnUse">
<stop stop-color="#59A852"/>
<stop offset="1" stop-color="#3F773A"/>
</linearGradient>
<linearGradient id="paint16_linear_742_6516" x1="31.0775" y1="2.30457" x2="31.0775" y2="26.4945" gradientUnits="userSpaceOnUse">
<stop stop-color="#59A852"/>
<stop offset="1" stop-color="#3F773A"/>
</linearGradient>
</defs>
</svg>
