<svg width="52" height="58" viewBox="0 0 52 58" fill="none" xmlns="http://www.w3.org/2000/svg">
<g id="Group">
<g id="Group_2">
<path id="Vector" d="M27.1847 9.013C27.737 9.013 28.1847 9.46072 28.1847 10.013V22.2C28.1847 23.0822 28.4459 23.9448 28.9354 24.6789L32.1373 29.4815C32.4436 29.941 32.3195 30.5619 31.86 30.8682C31.4004 31.1746 30.7796 31.0505 30.4732 30.5909L27.2713 25.7884C26.5628 24.7257 26.1847 23.4771 26.1847 22.2L26.1846 11.013H22.6396L22.64 22.2C22.64 23.3789 22.3179 24.5334 21.7111 25.5399L21.5535 25.7883L12.5187 39.3398C12.2123 39.7994 11.5914 39.9235 11.1319 39.6171C10.6724 39.3108 10.5482 38.6899 10.8546 38.2304L19.8894 24.6789C20.3789 23.9448 20.64 23.0823 20.64 22.2V10.013C20.64 9.46072 21.0877 9.013 21.64 9.013H27.1847Z" fill="url(#paint0_linear_742_5518)"/>
<path id="Vector_2" d="M8.7308 41.416C9.03716 40.9564 9.65803 40.8323 10.1176 41.1386C10.5771 41.445 10.7012 42.0659 10.3949 42.5254L6.85043 47.8418C6.30212 48.6642 6.36614 49.4639 6.73833 50.1593C7.11045 50.8546 7.74034 51.3515 8.72873 51.3515H40.0962C41.0847 51.3515 41.7146 50.8546 42.0866 50.1592C42.4589 49.4636 42.5229 48.6641 41.9745 47.8417L41.6734 47.3897L41.5451 47.4545C40.3165 48.0383 38.9695 48.3701 37.5558 48.4213L37.1686 48.4283C36.6163 48.4283 36.1686 47.9806 36.1686 47.4283C36.1686 46.876 36.6163 46.4283 37.1686 46.4283C38.7381 46.4283 40.2018 46.0068 41.4692 45.2212C41.9277 44.937 42.5289 45.0677 42.8281 45.5165L43.6385 46.7322C44.6609 48.2656 44.5365 49.8199 43.8501 51.1027C43.1638 52.3854 41.9392 53.3515 40.0962 53.3515H8.72873C6.88589 53.3515 5.66135 52.3855 4.97499 51.103C4.2885 49.8204 4.16403 48.2657 5.18637 46.7324L8.7308 41.416Z" fill="url(#paint1_linear_742_5518)"/>
<path id="Vector_3" d="M35.2482 21.2072C36.1018 19.7288 38.2356 19.7288 39.0892 21.2072L45.987 33.1545C49.9063 39.9429 45.0072 48.4283 37.1687 48.4283C29.3302 48.4283 24.4311 39.9429 28.3504 33.1545L35.2482 21.2072ZM37.3572 22.2072C37.2734 22.0621 37.064 22.0621 36.9802 22.2072L30.0824 34.1545C26.9329 39.6096 30.8698 46.4283 37.1687 46.4283C43.4676 46.4283 47.4044 39.6096 44.255 34.1545L37.3572 22.2072Z" fill="url(#paint2_linear_742_5518)"/>
<path id="Vector_4" d="M37.1687 28.4192C37.721 28.4192 38.1687 28.8669 38.1687 29.4192V42.9231C38.1687 43.4754 37.721 43.9231 37.1687 43.9231C36.6164 43.9231 36.1687 43.4754 36.1687 42.9231V29.4192C36.1687 28.8669 36.6164 28.4192 37.1687 28.4192Z" fill="url(#paint3_linear_742_5518)"/>
<path id="Vector_5" d="M33.7819 31.987C34.1725 31.5964 34.8056 31.5965 35.1961 31.987L37.168 33.9591L39.1408 31.987C39.5013 31.6265 40.0685 31.5988 40.4608 31.9038L40.555 31.987C40.9455 32.3775 40.9455 33.0107 40.555 33.4012L37.8755 36.0808C37.485 36.4713 36.8518 36.4713 36.4613 36.0808L33.7819 33.4012C33.3914 33.0106 33.3914 32.3775 33.7819 31.987Z" fill="url(#paint4_linear_742_5518)"/>
<path id="Vector_6" d="M33.0671 37.3752C33.4576 36.9847 34.0908 36.9847 34.4813 37.3752L37.1682 40.0623L39.8562 37.3752C40.2166 37.0147 40.7839 36.987 41.1762 37.292L41.2704 37.3752C41.6609 37.7657 41.6609 38.3989 41.2704 38.7894L37.8759 42.184C37.4854 42.5746 36.8522 42.5746 36.4617 42.184L33.0671 38.7894C32.6765 38.3989 32.6765 37.7658 33.0671 37.3752Z" fill="url(#paint5_linear_742_5518)"/>
<path id="Vector_7" d="M47.2548 14.6864C49.5274 14.6864 51.3697 16.5287 51.3697 18.8013C51.3697 21.0739 49.5274 22.9162 47.2548 22.9162C44.9822 22.9162 43.1399 21.0739 43.1399 18.8013C43.1399 16.5287 44.9822 14.6864 47.2548 14.6864ZM47.2548 16.6864C46.0868 16.6864 45.1399 17.6333 45.1399 18.8013C45.1399 19.9693 46.0868 20.9162 47.2548 20.9162C48.4228 20.9162 49.3697 19.9693 49.3697 18.8013C49.3697 17.6333 48.4228 16.6864 47.2548 16.6864Z" fill="url(#paint6_linear_742_5518)"/>
<path id="Vector_8" d="M42.6566 1.8017C44.9292 1.8017 46.7715 3.644 46.7715 5.91659C46.7715 8.18918 44.9292 10.0315 42.6566 10.0315C40.3841 10.0315 38.5417 8.18918 38.5417 5.91659C38.5417 3.644 40.3841 1.8017 42.6566 1.8017ZM42.6566 3.8017C41.4886 3.8017 40.5417 4.74857 40.5417 5.91659C40.5417 7.08461 41.4886 8.03148 42.6566 8.03148C43.8247 8.03148 44.7715 7.08461 44.7715 5.91659C44.7715 4.74857 43.8247 3.8017 42.6566 3.8017Z" fill="url(#paint7_linear_742_5518)"/>
<path id="Vector_9" d="M20.1917 0.820251C20.744 0.820251 21.1917 1.26797 21.1917 1.82025C21.1917 2.37254 20.744 2.82025 20.1917 2.82025H16.2634C15.9096 2.82025 15.6228 3.10708 15.6228 3.46088V8.37236C15.6228 8.72617 15.9096 9.01299 16.2634 9.01299H32.5612C32.915 9.01299 33.2019 8.72613 33.2019 8.37236V3.46088C33.2019 3.10712 32.915 2.82025 32.5612 2.82025H24.0197C23.4674 2.82025 23.0197 2.37254 23.0197 1.82025C23.0197 1.26797 23.4674 0.820251 24.0197 0.820251H32.5612C34.0196 0.820251 35.2019 2.00253 35.2019 3.46088V8.37236C35.2019 9.83072 34.0196 11.013 32.5612 11.013H16.2634C14.805 11.013 13.6228 9.83072 13.6228 8.37236V3.46088C13.6228 2.00253 14.805 0.820251 16.2634 0.820251H20.1917Z" fill="url(#paint8_linear_742_5518)"/>
<path id="Vector_10" d="M31.0129 17.2812C31.5652 17.2812 32.0129 17.7289 32.0129 18.2812V21.0407C32.0129 21.923 32.2741 22.7854 32.7635 23.5195L34.2726 25.7829C34.5789 26.2425 34.4548 26.8633 33.9953 27.1697C33.5358 27.4761 32.9149 27.3519 32.6085 26.8924L31.0994 24.629C30.3909 23.5663 30.0129 22.3179 30.0129 21.0407V18.2812C30.0129 17.7289 30.4607 17.2812 31.0129 17.2812Z" fill="url(#paint9_linear_742_5518)"/>
<path id="Vector_11" d="M31.0128 9.013C31.5651 9.013 32.0128 9.46072 32.0128 10.013V14.4531C32.0128 15.0054 31.5651 15.4531 31.0128 15.4531C30.4605 15.4531 30.0128 15.0054 30.0128 14.4531L30.0121 11.013H18.8111L18.8118 21.0407C18.8118 22.2196 18.4897 23.374 17.883 24.3806L17.7254 24.6291L3.66517 45.7182C0.968863 49.7625 3.86795 55.1796 8.72852 55.1796H40.0962C44.9568 55.1796 47.8559 49.7625 45.1596 45.7182L43.96 43.9189C43.6536 43.4594 43.7778 42.8385 44.2373 42.5322C44.6968 42.2258 45.3177 42.35 45.6241 42.8095L46.8237 44.6088C50.4061 49.9821 46.5542 57.1796 40.0962 57.1796H8.72852C2.27053 57.1796 -1.58133 49.9821 2.0011 44.6088L16.0612 23.5198C16.5507 22.7855 16.8118 21.923 16.8118 21.0407V10.013C16.8118 9.46072 17.2595 9.013 17.8118 9.013H31.0128Z" fill="url(#paint10_linear_742_5518)"/>
<path id="Vector_12" d="M22.3909 36.8593C24.1513 36.8593 25.5784 38.2864 25.5784 40.0468C25.5784 41.8072 24.1513 43.2343 22.3909 43.2343C20.6305 43.2343 19.2034 41.8072 19.2034 40.0468C19.2034 38.2864 20.6305 36.8593 22.3909 36.8593ZM22.3909 38.8593C21.7351 38.8593 21.2034 39.391 21.2034 40.0468C21.2034 40.7026 21.7351 41.2343 22.3909 41.2343C23.0467 41.2343 23.5784 40.7026 23.5784 40.0468C23.5784 39.391 23.0467 38.8593 22.3909 38.8593Z" fill="url(#paint11_linear_742_5518)"/>
<path id="Vector_13" d="M15.2814 42.4374C17.3439 42.4374 19.0158 44.1094 19.0158 46.1718C19.0158 48.2343 17.3439 49.9062 15.2814 49.9062C13.219 49.9062 11.5471 48.2343 11.5471 46.1718C11.5471 44.1094 13.219 42.4374 15.2814 42.4374ZM15.2814 44.4374C14.3236 44.4374 13.5471 45.214 13.5471 46.1718C13.5471 47.1297 14.3236 47.9062 15.2814 47.9062C16.2393 47.9062 17.0158 47.1298 17.0158 46.1718C17.0158 45.214 16.2393 44.4374 15.2814 44.4374Z" fill="url(#paint12_linear_742_5518)"/>
<path id="Vector_14" d="M28.8741 33.3046H14.6736V35.3046H28.8741V33.3046Z" fill="url(#paint13_linear_742_5518)"/>
</g>
</g>
<defs>
<linearGradient id="paint0_linear_742_5518" x1="-0.122883" y1="9.013" x2="-0.122883" y2="39.7852" gradientUnits="userSpaceOnUse">
<stop stop-color="#59A852"/>
<stop offset="1" stop-color="#3F773A"/>
</linearGradient>
<linearGradient id="paint1_linear_742_5518" x1="-15.5336" y1="40.9706" x2="-15.5336" y2="53.3515" gradientUnits="userSpaceOnUse">
<stop stop-color="#59A852"/>
<stop offset="1" stop-color="#3F773A"/>
</linearGradient>
<linearGradient id="paint2_linear_742_5518" x1="16.7732" y1="20.0984" x2="16.7732" y2="48.4283" gradientUnits="userSpaceOnUse">
<stop stop-color="#59A852"/>
<stop offset="1" stop-color="#3F773A"/>
</linearGradient>
<linearGradient id="paint3_linear_742_5518" x1="35.1687" y1="28.4192" x2="35.1687" y2="43.9231" gradientUnits="userSpaceOnUse">
<stop stop-color="#59A852"/>
<stop offset="1" stop-color="#3F773A"/>
</linearGradient>
<linearGradient id="paint4_linear_742_5518" x1="29.8096" y1="31.6941" x2="29.8096" y2="36.3737" gradientUnits="userSpaceOnUse">
<stop stop-color="#59A852"/>
<stop offset="1" stop-color="#3F773A"/>
</linearGradient>
<linearGradient id="paint5_linear_742_5518" x1="28.3796" y1="37.0823" x2="28.3796" y2="42.4769" gradientUnits="userSpaceOnUse">
<stop stop-color="#59A852"/>
<stop offset="1" stop-color="#3F773A"/>
</linearGradient>
<linearGradient id="paint6_linear_742_5518" x1="39.025" y1="14.6864" x2="39.025" y2="22.9162" gradientUnits="userSpaceOnUse">
<stop stop-color="#59A852"/>
<stop offset="1" stop-color="#3F773A"/>
</linearGradient>
<linearGradient id="paint7_linear_742_5518" x1="34.4268" y1="1.8017" x2="34.4268" y2="10.0315" gradientUnits="userSpaceOnUse">
<stop stop-color="#59A852"/>
<stop offset="1" stop-color="#3F773A"/>
</linearGradient>
<linearGradient id="paint8_linear_742_5518" x1="2.83325" y1="0.820251" x2="2.83325" y2="11.013" gradientUnits="userSpaceOnUse">
<stop stop-color="#59A852"/>
<stop offset="1" stop-color="#3F773A"/>
</linearGradient>
<linearGradient id="paint9_linear_742_5518" x1="27.7991" y1="17.2812" x2="27.7991" y2="27.3378" gradientUnits="userSpaceOnUse">
<stop stop-color="#59A852"/>
<stop offset="1" stop-color="#3F773A"/>
</linearGradient>
<linearGradient id="paint10_linear_742_5518" x1="-23.1536" y1="9.013" x2="-23.1536" y2="57.1796" gradientUnits="userSpaceOnUse">
<stop stop-color="#59A852"/>
<stop offset="1" stop-color="#3F773A"/>
</linearGradient>
<linearGradient id="paint11_linear_742_5518" x1="16.0159" y1="36.8593" x2="16.0159" y2="43.2343" gradientUnits="userSpaceOnUse">
<stop stop-color="#59A852"/>
<stop offset="1" stop-color="#3F773A"/>
</linearGradient>
<linearGradient id="paint12_linear_742_5518" x1="7.81277" y1="42.4374" x2="7.81277" y2="49.9062" gradientUnits="userSpaceOnUse">
<stop stop-color="#59A852"/>
<stop offset="1" stop-color="#3F773A"/>
</linearGradient>
<linearGradient id="paint13_linear_742_5518" x1="7.57333" y1="33.3046" x2="7.57333" y2="35.3046" gradientUnits="userSpaceOnUse">
<stop stop-color="#59A852"/>
<stop offset="1" stop-color="#3F773A"/>
</linearGradient>
</defs>
</svg>
