<svg width="16" height="16" viewBox="0 0 16 16" fill="none" xmlns="http://www.w3.org/2000/svg">
<g id="Icon-left">
<path id="Vector" fill-rule="evenodd" clip-rule="evenodd" d="M8.00004 1.33337C6.6815 1.33337 5.39257 1.72437 4.29624 2.45691C4.29075 2.46058 4.28526 2.46426 4.27978 2.46795C4.26844 2.47033 4.25716 2.47282 4.24594 2.47541L4.24902 2.48876C3.17537 3.21948 2.33816 4.24819 1.84085 5.44882C1.33626 6.66699 1.20424 8.00744 1.46148 9.30064C1.71871 10.5938 2.35365 11.7817 3.286 12.7141C4.21835 13.6464 5.40624 14.2814 6.69944 14.5386C7.99265 14.7958 9.33309 14.6638 10.5513 14.1592C11.7694 13.6547 12.8106 12.8002 13.5432 11.7038C14.2757 10.6075 14.6667 9.31858 14.6667 8.00004C14.6667 7.12456 14.4943 6.25766 14.1592 5.44882C13.8242 4.63998 13.3331 3.90505 12.7141 3.286C12.095 2.66694 11.3601 2.17588 10.5513 1.84084C9.74243 1.50581 8.87552 1.33337 8.00004 1.33337ZM4.76822 3.75743C4.57878 3.90173 4.3985 4.05911 4.22881 4.2288C3.48293 4.97468 2.97498 5.92499 2.76919 6.95956C2.6045 7.78748 2.63925 8.63961 2.86658 9.44644C3.0776 9.39362 3.32495 9.37604 3.58669 9.42587C4.03948 9.51207 4.47759 9.78914 4.81041 10.3056C4.8855 10.4221 5.12637 10.5645 5.6102 10.6444C5.7638 10.6697 5.91796 10.6852 6.06447 10.6946L6.04354 9.93088C6.03294 9.90896 5.99185 9.83701 5.84489 9.70977C5.76033 9.63655 5.66525 9.56532 5.5572 9.48576L5.52956 9.46543C5.43682 9.39728 5.32371 9.31415 5.23007 9.233C4.98961 9.0246 4.75102 8.69464 4.716 8.28614C4.67507 7.80855 4.92542 7.39417 5.35949 7.14883C5.4924 7.07371 5.69454 6.89036 5.97017 6.57608C6.18064 6.33611 6.39795 6.06294 6.62876 5.7728C6.68913 5.6969 6.75044 5.61983 6.81278 5.54191C6.90828 5.42254 6.94594 5.22144 6.84957 4.92384C6.80417 4.78363 6.73647 4.65151 6.66507 4.547C6.59654 4.4467 6.54671 4.40367 6.53824 4.39636C6.53705 4.39533 6.53667 4.395 6.53718 4.39533C6.1025 4.11788 5.67622 3.93859 5.31191 3.84259C5.08917 3.7839 4.90651 3.76064 4.76822 3.75743ZM3.44635 10.7764C3.84809 11.4353 4.38988 12.0022 5.037 12.4345C5.91406 13.0206 6.94521 13.3334 8.00004 13.3334C9.20804 13.3334 10.3738 12.9236 11.3114 12.1809C11.1813 12.1519 11.0559 12.1118 10.9418 12.0603C10.8191 12.0049 10.6519 11.9109 10.5243 11.7538C10.2701 11.441 10.3056 11.0565 10.3195 10.9061L10.3202 10.8987C10.3298 10.7942 10.3399 10.7165 10.3494 10.6428C10.3629 10.5387 10.3754 10.4427 10.3839 10.2908C10.4067 9.88561 10.3678 9.31752 9.95387 8.54364C9.69864 8.06647 9.54163 7.6376 9.53882 7.24801C9.53551 6.78924 9.74456 6.45855 10.0306 6.24473C10.2153 6.10667 10.4565 6.00881 10.5868 5.95595C10.6101 5.94653 10.6298 5.93853 10.645 5.93199C10.747 5.88825 10.7848 5.86323 10.7943 5.85694L10.7954 5.8562C10.9998 5.56928 11.3507 5.22083 11.6651 4.92877C11.8031 4.80059 11.9431 4.67508 12.0752 4.55943C11.5275 3.9107 10.8307 3.39979 10.041 3.07268C9.06648 2.66902 7.99413 2.5634 6.95956 2.76919C6.81453 2.79804 6.67115 2.83282 6.52975 2.87337C6.76975 2.98472 7.01297 3.11723 7.25454 3.27142C7.45926 3.40209 7.63333 3.60069 7.76597 3.79481C7.90535 3.99881 8.03133 4.24522 8.11807 4.5131C8.28598 5.03168 8.34177 5.76504 7.85394 6.37484C7.79788 6.44491 7.74087 6.5166 7.6832 6.58911C7.45022 6.88207 7.20639 7.18867 6.97259 7.45525C6.7206 7.74257 6.43062 8.04296 6.12437 8.24321C6.17359 8.28384 6.23941 8.3323 6.33564 8.40315L6.3478 8.41211C6.45459 8.49075 6.58868 8.5901 6.71766 8.70177C6.95171 8.90442 7.30591 9.25976 7.36988 9.77152L7.37389 9.80362L7.43521 12.0417H6.75003L6.68021 12.0419C6.4232 12.0431 5.91042 12.0453 5.39298 11.9599C4.86744 11.8731 4.09789 11.6613 3.68965 11.0278C3.59907 10.8873 3.51419 10.8147 3.44635 10.7764ZM12.5725 5.90568C12.6508 5.83295 12.73 5.76098 12.8078 5.69143C13.1524 6.409 13.3334 7.19767 13.3334 8.00004C13.3334 8.88383 13.114 9.74499 12.7055 10.5108C12.5281 10.7259 12.323 10.8221 12.1467 10.8673C11.9734 10.9118 11.801 10.9127 11.6631 10.8911C11.6799 10.7525 11.7053 10.5414 11.7151 10.3655C11.7497 9.74988 11.674 8.93256 11.1296 7.91477C10.9449 7.56956 10.89 7.37564 10.8762 7.2837C10.9053 7.26888 10.9445 7.25254 11.0076 7.22619C11.0499 7.20855 11.1029 7.18643 11.1708 7.15728C11.3419 7.08386 11.6619 6.94166 11.8786 6.6337C11.992 6.47252 12.2511 6.20425 12.5725 5.90568ZM11.6439 11.0999C11.6447 11.1063 11.6446 11.1101 11.6446 11.1101C11.6446 11.1101 11.6441 11.1071 11.6439 11.0999Z" fill="#292929"/>
</g>
</svg>
