<svg width="12" height="8" viewBox="0 0 12 8" fill="none" xmlns="http://www.w3.org/2000/svg">
<path d="M1.3334 4.66776L9.06007 4.66776L7.52674 6.19443C7.46458 6.25659 7.41527 6.33038 7.38163 6.4116C7.34799 6.49281 7.33068 6.57986 7.33068 6.66776C7.33068 6.75567 7.34799 6.84271 7.38163 6.92393C7.41527 7.00514 7.46458 7.07894 7.52674 7.1411C7.58889 7.20326 7.66269 7.25256 7.7439 7.2862C7.82512 7.31984 7.91216 7.33716 8.00007 7.33716C8.08798 7.33716 8.17502 7.31984 8.25624 7.2862C8.33745 7.25256 8.41124 7.20326 8.4734 7.1411L11.1401 4.47443C11.2008 4.41103 11.2483 4.33626 11.2801 4.25443C11.3467 4.09212 11.3467 3.91007 11.2801 3.74776C11.2483 3.66593 11.2008 3.59117 11.1401 3.52776L8.4734 0.861098C8.41143 0.798612 8.33769 0.749015 8.25645 0.715169C8.17521 0.681324 8.08808 0.663899 8.00007 0.663899C7.91206 0.663899 7.82492 0.681324 7.74369 0.715169C7.66245 0.749015 7.58871 0.798612 7.52674 0.861098C7.46425 0.923073 7.41465 0.996807 7.38081 1.07805C7.34696 1.15929 7.32954 1.24642 7.32954 1.33443C7.32954 1.42244 7.34696 1.50958 7.38081 1.59082C7.41465 1.67205 7.46425 1.74579 7.52674 1.80776L9.06007 3.33443L1.3334 3.33443C1.15659 3.33443 0.987023 3.40467 0.861999 3.52969C0.736974 3.65472 0.666737 3.82429 0.666737 4.0011C0.666737 4.17791 0.736974 4.34748 0.861999 4.4725C0.987023 4.59752 1.15659 4.66776 1.3334 4.66776Z" fill="#51994B"/>
</svg>
