<svg width="82" height="58" viewBox="0 0 82 58" fill="none" xmlns="http://www.w3.org/2000/svg">
<g clip-path="url(#clip0_621_14487)">
<path d="M53.334 21.0631C52.8008 19.3439 52.0625 17.9328 52.0625 17.9328C52.0625 17.9328 48.6091 12.1588 44.9343 8.40402C41.2676 4.65738 39.4056 3.18954 38.4704 2.40291C37.5353 1.62438 35.6979 0.107885 35.4846 0.00246043C35.46 -0.0137588 33.8522 10.3422 30.3496 16.4974C28.627 19.6196 27.8068 22.8067 28.061 25.1747C28.3153 27.5427 28.7747 29.635 31.1207 32.4815C32.1625 33.706 33.6882 35.1171 35.8866 35.8713C41.1938 37.4851 45.2296 36.1876 47.5346 34.9225C46.6159 34.2088 45.6971 33.3573 44.8851 32.5301C40.6278 34.5008 36.4936 34.2656 33.6718 30.0161C31.4078 26.5858 31.498 21.7687 32.3839 18.241C33.2288 14.6403 34.8776 12.3129 34.812 12.2966C34.812 12.2399 36.9939 13.3833 39.6845 14.5106C42.375 15.7108 45.5659 16.9029 47.6576 18.7276C49.2818 20.1549 50.1513 22.2958 50.0118 24.3556C49.8806 26.2371 49.2244 28.524 47.3377 30.8109C42.3668 28.0293 38.897 23.4636 36.5674 18.5005C38.0521 22.4904 40.2751 26.3587 43.3921 29.4485C45.8038 31.63 47.9201 33.114 48.9537 33.7952C49.0111 33.8277 49.0521 33.8763 49.0849 33.925C49.3392 33.7222 49.5197 33.5601 49.6263 33.4546C53.9328 29.8053 54.3675 24.234 53.3258 21.0875" fill="white"/>
<path d="M3.06786 39.3747V44.8487C3.58464 44.9055 3.99478 44.9298 4.29828 44.9298C5.70097 44.9298 6.71812 44.6946 7.36614 44.2324C8.01417 43.7701 8.33408 43.0159 8.33408 41.9779C8.33408 40.2019 6.89038 39.3179 4.00298 39.3179C3.68307 39.3179 3.37136 39.3342 3.06786 39.3747ZM3.06786 47.5411V53.826H0V36.7472C2.04251 36.658 3.24012 36.6174 3.58464 36.6174C6.31618 36.6174 8.30947 37.031 9.57271 37.8582C10.8359 38.6854 11.4676 39.9829 11.4676 41.7346C11.4676 45.6515 9.12975 47.6141 4.46234 47.6141C4.11782 47.6141 3.65026 47.5897 3.06786 47.533" fill="white"/>
<path d="M19.7845 53.8261V47.2654C19.7845 46.6085 19.5794 46.0814 19.1611 45.684C18.7428 45.2866 18.2014 45.0839 17.5287 45.0839C17.1104 45.0839 16.692 45.1974 16.2737 45.4164C15.8472 45.6354 15.5519 45.8949 15.3714 46.1787V53.818H12.8203V39.2044L15.3714 38.6124V43.8512C16.0194 43.2673 16.9135 42.9754 18.0537 42.9754C19.399 42.9754 20.4489 43.3484 21.1872 44.0864C21.9337 44.8244 22.3028 45.8868 22.3028 47.2654V53.8261H19.7763H19.7845Z" fill="white"/>
<path d="M29.7928 55.5371C29.5221 56.2426 28.9479 56.8346 28.0702 57.305C27.1925 57.7754 26.1589 58.0024 24.9859 58.0024V55.8047C26.9218 55.8047 27.8897 55.3263 27.8897 54.3612C27.8897 53.7205 27.619 52.7474 27.0858 51.4417L23.7227 43.1862H26.323L29.2596 50.5416L31.9009 43.1862H34.5012L29.7846 55.5371H29.7928Z" fill="white"/>
<path d="M36.3953 45.1812H35.1484V43.1863H36.3953V41.021L38.9053 40.1046V43.1863H41.8584V45.1812H38.9053V49.8443C38.9053 50.6066 39.0284 51.1418 39.2663 51.4581C39.5041 51.7744 39.9307 51.9284 40.5295 51.9284C41.1283 51.9284 41.6943 51.7662 42.2193 51.4419V53.7288C41.6369 53.9315 40.8084 54.0288 39.7256 54.0288C38.6428 54.0288 37.8308 53.7288 37.2484 53.1287C36.6742 52.5285 36.3871 51.677 36.3871 50.566V45.1812H36.3953Z" fill="white"/>
<path d="M46.0913 48.4818C46.0913 50.8255 46.9444 52.0014 48.6506 52.0014C49.4381 52.0014 50.0533 51.6932 50.5126 51.085C50.972 50.4768 51.2017 49.6091 51.2017 48.4818C51.2017 46.1706 50.3486 45.0109 48.6506 45.0109C47.8631 45.0109 47.2397 45.3191 46.7804 45.9273C46.321 46.5355 46.0831 47.387 46.0831 48.4818M43.4746 48.4818C43.4746 46.8599 43.9504 45.538 44.8937 44.5162C45.837 43.4944 47.0921 42.9835 48.6506 42.9835C50.283 42.9835 51.5544 43.4701 52.4649 44.4514C53.3672 45.4326 53.8184 46.7707 53.8184 48.4737C53.8184 50.1767 53.359 51.5148 52.4403 52.5204C51.5216 53.5179 50.2584 54.0207 48.6588 54.0207C47.0592 54.0207 45.755 53.5179 44.8445 52.5042C43.934 51.4905 43.4828 50.1524 43.4828 48.4737" fill="white"/>
<path d="M62.7599 45.7326C62.2267 45.3109 61.6607 45.092 61.0783 45.092C60.0776 45.092 59.2983 45.392 58.7569 46.0002C58.2155 46.6085 57.9448 47.4762 57.9448 48.6115C57.9448 50.8255 59.0276 51.9284 61.1849 51.9284C61.4228 51.9284 61.7263 51.8554 62.0709 51.7175C62.4236 51.5715 62.6533 51.4337 62.7599 51.2877V45.7326ZM62.7599 53.826V53.1772C62.5548 53.4043 62.2021 53.5989 61.7017 53.7692C61.2096 53.9396 60.6928 54.0206 60.1596 54.0206C58.6585 54.0206 57.4773 53.5503 56.616 52.6096C55.7547 51.6689 55.3281 50.3551 55.3281 48.6764C55.3281 46.9977 55.8203 45.6272 56.8128 44.5648C57.8054 43.5025 59.0358 42.9835 60.5287 42.9835C61.349 42.9835 62.0873 43.1457 62.7599 43.4781V39.2125L65.27 38.6205V53.826H62.7599Z" fill="white"/>
<path d="M78.4685 48.8224C78.042 48.7332 77.7139 48.6926 77.5006 48.6926C75.5155 48.6926 74.523 49.3333 74.523 50.6227C74.523 51.5796 75.0808 52.0581 76.2045 52.0581C77.7139 52.0581 78.4685 51.312 78.4685 49.8199V48.8224ZM78.7146 52.7636C78.4849 53.1367 78.0912 53.4367 77.5252 53.6719C76.9592 53.9071 76.3686 54.0288 75.7534 54.0288C74.5968 54.0288 73.6863 53.7449 73.0218 53.1691C72.3574 52.5933 72.0293 51.7824 72.0293 50.7281C72.0293 49.4955 72.4969 48.5304 73.432 47.833C74.3671 47.1356 75.696 46.7869 77.4186 46.7869C77.7139 46.7869 78.0584 46.8355 78.4603 46.9328C78.4603 45.684 77.6564 45.0514 76.0569 45.0514C75.1136 45.0514 74.3179 45.2055 73.6863 45.5218L73.1449 43.5917C74.0062 43.1781 75.0397 42.9753 76.2292 42.9753C77.8697 42.9753 79.0755 43.3484 79.8384 44.0864C80.6013 44.8243 80.9868 46.2273 80.9868 48.2871V50.5659C80.9868 51.9851 81.2739 52.8772 81.8481 53.2421C81.643 53.5989 81.4133 53.8179 81.1509 53.9071C80.8966 53.9882 80.6013 54.0288 80.2731 54.0288C79.9122 54.0288 79.5841 53.899 79.297 53.6314C79.0099 53.3638 78.813 53.0799 78.7146 52.7636Z" fill="white"/>
<path d="M67.591 43.024H70.1831V53.8341H67.591V43.024ZM68.887 38.5718C69.3382 38.5718 69.7319 38.7421 70.0518 39.0908C70.38 39.4396 70.5358 39.8532 70.5358 40.3397C70.5358 40.8263 70.3718 41.2399 70.0518 41.5724C69.7319 41.913 69.3464 42.0833 68.8952 42.0833C68.4441 42.0833 68.0422 41.913 67.7222 41.5643C67.4023 41.2156 67.2383 40.7939 67.2383 40.2992C67.2383 39.8045 67.4023 39.4152 67.7222 39.0746C68.0422 38.734 68.4277 38.5637 68.887 38.5637" fill="white"/>
</g>
<defs>
<clipPath id="clip0_621_14487">
<rect width="82" height="58" fill="white" transform="translate(0 0.00244141)"/>
</clipPath>
</defs>
</svg>
