<svg width="39" height="56" viewBox="0 0 39 56" fill="none" xmlns="http://www.w3.org/2000/svg">
<path id="Symbol" d="M38.276 32.2053C37.47 29.5763 36.3539 27.4185 36.3539 27.4185C36.3539 27.4185 31.1331 18.5891 25.5774 12.8474C20.0342 7.11818 17.2192 4.87361 15.8055 3.67071C14.3918 2.48022 11.614 0.161242 11.2915 2.90981e-05C11.2543 -0.0247728 8.82374 15.8112 3.52853 25.2236C0.924334 29.9979 -0.315763 34.8715 0.0686665 38.4926C0.453096 42.1137 1.14755 45.3131 4.69422 49.6659C6.26914 51.5384 8.57572 53.6962 11.8992 54.8495C19.9226 57.3173 26.0239 55.3331 29.5085 53.3986C28.1196 52.3073 26.7307 51.0052 25.503 49.7403C19.0669 52.7537 12.8169 52.3941 8.55092 45.896C5.12826 40.6504 5.26467 33.2842 6.60397 27.8898C7.88127 22.3838 10.3739 18.8247 10.2747 18.7999C10.2747 18.7131 13.5733 20.4616 17.6408 22.1853C21.7083 24.0207 26.5323 25.8436 29.6946 28.6338C32.1499 30.8164 33.4644 34.0903 33.2536 37.2401C33.0552 40.1171 32.0631 43.6142 29.2109 47.1113C21.6959 42.8577 16.4503 35.876 12.9285 28.2866C15.173 34.3879 18.5337 40.3031 23.2461 45.0279C26.8919 48.3638 30.0914 50.6331 31.6539 51.6748C31.7407 51.7244 31.8027 51.7988 31.8523 51.8732C32.2368 51.5632 32.5096 51.3152 32.6708 51.154C39.1813 45.5735 39.8385 37.0541 38.2636 32.2425" fill="#3F773A"/>
</svg>
