<svg width="124" height="33" viewBox="0 0 124 33" fill="none" xmlns="http://www.w3.org/2000/svg">
<g id="Typo">
<path id="Vector" d="M4.68337 4.515V12.8856C5.46463 12.9725 6.08468 13.0097 6.54351 13.0097C8.66407 13.0097 10.2018 12.65 11.1815 11.9432C12.1611 11.2363 12.6448 10.083 12.6448 8.49571C12.6448 5.7799 10.4622 4.42819 6.09708 4.42819C5.61344 4.42819 5.1422 4.45299 4.68337 4.515ZM4.68337 17.0028V26.6135H0.0454102V0.497091C3.13325 0.36068 4.94379 0.298676 5.46463 0.298676C9.59415 0.298676 12.6076 0.931123 14.5173 2.19602C16.4271 3.46092 17.3819 5.44507 17.3819 8.12368C17.3819 14.1133 13.8477 17.1144 6.79153 17.1144C6.27069 17.1144 5.56384 17.0772 4.68337 16.9904" fill="#292929"/>
<path id="Vector_2" d="M29.9564 26.6135V16.5812C29.9564 15.5767 29.6464 14.7706 29.0139 14.163C28.3815 13.5553 27.563 13.2453 26.5461 13.2453C25.9137 13.2453 25.2812 13.4189 24.6488 13.7537C24.0039 14.0886 23.5575 14.4854 23.2847 14.9194V26.6011H19.428V4.2546L23.2847 3.34933V11.3604C24.2643 10.4675 25.6161 10.0211 27.3398 10.0211C29.3735 10.0211 30.9609 10.5915 32.077 11.72C33.2054 12.8485 33.7635 14.473 33.7635 16.5812V26.6135H29.944H29.9564Z" fill="#292929"/>
<path id="Vector_3" d="M45.0859 29.2301C44.6767 30.309 43.8086 31.2143 42.4817 31.9335C41.1548 32.6528 39.5923 33 37.8189 33V29.6393C40.7455 29.6393 42.2089 28.9077 42.2089 27.432C42.2089 26.4523 41.7996 24.9642 40.9936 22.9676L35.9092 10.3434H39.8403L44.2798 21.5911L48.2729 10.3434H52.204L45.0735 29.2301H45.0859Z" fill="#292929"/>
<path id="Vector_4" d="M55.0683 13.3941H53.1833V10.3435H55.0683V7.03241L58.863 5.6311V10.3435H63.3273V13.3941H58.863V20.5247C58.863 21.6903 59.049 22.5088 59.4086 22.9924C59.7683 23.4761 60.4131 23.7117 61.3184 23.7117C62.2237 23.7117 63.0793 23.4637 63.873 22.9676V26.4647C62.9925 26.7747 61.74 26.9236 60.1031 26.9236C58.4662 26.9236 57.2385 26.4647 56.358 25.547C55.4899 24.6294 55.0559 23.3273 55.0559 21.6283V13.3941H55.0683Z" fill="#292929"/>
<path id="Vector_5" d="M69.7262 18.4413C69.7262 22.0251 71.0159 23.8233 73.5953 23.8233C74.7858 23.8233 75.7158 23.352 76.4103 22.422C77.1047 21.4919 77.452 20.165 77.452 18.4413C77.452 14.907 76.1623 13.1337 73.5953 13.1337C72.4048 13.1337 71.4623 13.6049 70.7678 14.535C70.0734 15.465 69.7138 16.7671 69.7138 18.4413M65.7703 18.4413C65.7703 15.9611 66.4895 13.9397 67.9156 12.3772C69.3417 10.8147 71.2391 10.0334 73.5953 10.0334C76.0631 10.0334 77.9852 10.7775 79.3617 12.278C80.7258 13.7785 81.4079 15.8247 81.4079 18.4289C81.4079 21.0331 80.7134 23.0792 79.3245 24.6169C77.9356 26.1423 76.0259 26.9111 73.6077 26.9111C71.1895 26.9111 69.2177 26.1423 67.8412 24.5921C66.4647 23.042 65.7827 20.9959 65.7827 18.4289" fill="#292929"/>
<path id="Vector_6" d="M94.9252 14.2373C94.1191 13.5925 93.2635 13.2577 92.383 13.2577C90.8701 13.2577 89.692 13.7165 88.8735 14.6466C88.0551 15.5766 87.6458 16.9035 87.6458 18.6397C87.6458 22.0251 89.2828 23.7117 92.5442 23.7117C92.9038 23.7117 93.3627 23.6001 93.8835 23.3892C94.4168 23.166 94.764 22.9552 94.9252 22.732V14.2373ZM94.9252 26.6135V25.6214C94.6152 25.9686 94.0819 26.2663 93.3255 26.5267C92.5814 26.7871 91.8002 26.9111 90.9941 26.9111C88.7247 26.9111 86.939 26.1919 85.6369 24.7534C84.3348 23.3148 83.6899 21.3059 83.6899 18.7389C83.6899 16.1719 84.434 14.0761 85.9345 12.4516C87.435 10.8271 89.2952 10.0334 91.5521 10.0334C92.7922 10.0334 93.9083 10.2814 94.9252 10.7899V4.26696L98.7199 3.36169V26.6135H94.9252Z" fill="#292929"/>
<path id="Vector_7" d="M118.673 18.9621C118.028 18.8256 117.532 18.7636 117.209 18.7636C114.208 18.7636 112.708 19.7433 112.708 21.7151C112.708 23.1784 113.551 23.91 115.25 23.91C117.532 23.91 118.673 22.7691 118.673 20.4874V18.9621ZM119.045 24.9889C118.698 25.5594 118.102 26.0182 117.247 26.3778C116.391 26.7375 115.498 26.9235 114.568 26.9235C112.819 26.9235 111.443 26.4894 110.439 25.609C109.434 24.7285 108.938 23.4884 108.938 21.8763C108.938 19.9913 109.645 18.5156 111.059 17.4491C112.472 16.3827 114.481 15.8494 117.085 15.8494C117.532 15.8494 118.053 15.9238 118.66 16.0726C118.66 14.1629 117.445 13.1956 115.027 13.1956C113.601 13.1956 112.398 13.4312 111.443 13.9149L110.625 10.9634C111.927 10.331 113.489 10.021 115.287 10.021C117.767 10.021 119.59 10.5914 120.744 11.7199C121.897 12.8484 122.48 14.9937 122.48 18.1436V21.6283C122.48 23.7984 122.914 25.1625 123.782 25.7206C123.472 26.2662 123.125 26.601 122.728 26.7375C122.343 26.8615 121.897 26.9235 121.401 26.9235C120.855 26.9235 120.359 26.7251 119.925 26.3158C119.491 25.9066 119.194 25.4726 119.045 24.9889Z" fill="#292929"/>
<path id="Vector_8" d="M102.229 10.0954H106.148V26.6259H102.229V10.0954ZM104.189 3.28731C104.871 3.28731 105.466 3.54773 105.95 4.08097C106.446 4.61421 106.681 5.24666 106.681 5.99072C106.681 6.73477 106.433 7.36722 105.95 7.87566C105.466 8.3965 104.883 8.65692 104.201 8.65692C103.519 8.65692 102.911 8.3965 102.428 7.86326C101.944 7.33002 101.696 6.68517 101.696 5.92871C101.696 5.17225 101.944 4.577 102.428 4.05616C102.911 3.53532 103.494 3.2749 104.189 3.2749" fill="#292929"/>
</g>
</svg>
