<svg width="48" height="50" viewBox="0 0 48 50" fill="none" xmlns="http://www.w3.org/2000/svg">
<path d="M48 0.76709H0V50.0001H48V0.76709Z" fill="white"/>
<path d="M4.93201 14.2085C4.93201 14.1043 5.00147 14.0522 5.0883 14.0522H5.27933C5.38353 14.0522 5.43563 14.1043 5.47036 14.2085L7.79742 22.0754H7.83215L10.1418 14.2085C10.1766 14.1043 10.2287 14.0522 10.3329 14.0522H10.5239C10.6107 14.0522 10.6802 14.1217 10.6802 14.2085V24.8019C10.6802 24.9061 10.6107 24.9582 10.5239 24.9582H10.385C10.2808 24.9582 10.2287 24.8887 10.2287 24.8019V15.702H10.1939L8.05791 22.8569C8.02318 22.9784 7.97108 23.0132 7.88425 23.0132H7.74532C7.65849 23.0132 7.60639 22.9611 7.57166 22.8569L5.43563 15.702H5.40089V24.8019C5.40089 24.9061 5.33143 24.9582 5.2446 24.9582H5.10567C5.01884 24.9582 4.94937 24.8887 4.94937 24.8019V14.2085H4.93201Z" fill="#1D1D1B"/>
<path d="M16.4978 21.5544L15.178 15.3026H15.1432L13.8061 21.5544H16.4804H16.4978ZM14.9001 14.2085C14.9348 14.1043 14.9869 14.0522 15.0738 14.0522H15.2474C15.3516 14.0522 15.4037 14.1217 15.4211 14.2085L17.644 24.8019C17.644 24.9061 17.5745 24.9582 17.4877 24.9582H17.3314C17.2445 24.9582 17.1924 24.8887 17.1751 24.8019L16.5846 21.9886H13.7192L13.1288 24.8019C13.1288 24.9061 13.0593 24.9582 12.9725 24.9582H12.8162C12.712 24.9582 12.6425 24.8887 12.6599 24.8019L14.9175 14.2085H14.9001Z" fill="#1D1D1B"/>
<path d="M20.1795 24.5067H21.4472C22.4718 24.5067 23.0449 24.0899 23.3228 23.2563C23.4964 22.7179 23.5659 21.9886 23.5659 19.4878C23.5659 16.9871 23.4964 16.2577 23.3228 15.7194C23.0449 14.8858 22.4718 14.469 21.4472 14.469H20.1795C20.1795 14.469 20.0753 14.5038 20.0753 14.5732V24.4198C20.0753 24.4198 20.11 24.524 20.1795 24.524M19.6238 14.2085C19.6238 14.1043 19.6932 14.0522 19.7801 14.0522H21.5167C22.7844 14.0522 23.4791 14.6253 23.7917 15.6152C23.9827 16.2056 24.0348 16.9177 24.0348 19.5052C24.0348 22.0928 23.9827 22.8048 23.7917 23.4126C23.4791 24.3851 22.7844 24.9755 21.5167 24.9755H19.7801C19.6759 24.9755 19.6238 24.9061 19.6238 24.8193V14.2259V14.2085Z" fill="#1D1D1B"/>
<path d="M26.5354 14.2085C26.5354 14.1043 26.6049 14.0522 26.6917 14.0522H30.0955C30.1997 14.0522 30.2518 14.1217 30.2518 14.2085V14.3301C30.2518 14.4343 30.1823 14.4864 30.0955 14.4864H27.0911C27.0911 14.4864 26.9869 14.5211 26.9869 14.5906V19.1058C26.9869 19.1058 27.0217 19.21 27.0911 19.21H29.7134C29.8002 19.21 29.8697 19.2795 29.8697 19.3663V19.4878C29.8697 19.5747 29.8002 19.6441 29.7134 19.6441H27.0911C27.0911 19.6441 26.9869 19.6789 26.9869 19.731V24.4372C26.9869 24.4372 27.0217 24.5414 27.0911 24.5414H30.0955C30.1997 24.5414 30.2518 24.6109 30.2518 24.6977V24.8193C30.2518 24.9234 30.1823 24.9755 30.0955 24.9755H26.6917C26.6049 24.9755 26.5354 24.9061 26.5354 24.8193V14.2259V14.2085Z" fill="#1D1D1B"/>
<path d="M35.5658 14.0349H35.7048C35.7916 14.0349 35.8611 14.1044 35.8611 14.1912V24.7846C35.8611 24.8714 35.7916 24.9408 35.7048 24.9408H35.5658C35.479 24.9408 35.4095 24.8714 35.4095 24.7846V14.1912C35.4095 14.1044 35.479 14.0349 35.5658 14.0349Z" fill="#1D1D1B"/>
<path d="M38.5181 14.2085C38.5181 14.1043 38.5875 14.0522 38.6744 14.0522H38.8828C39.0217 14.0522 39.1085 14.087 39.1606 14.2085L42.5817 23.7773H42.6165V14.2085C42.6165 14.1043 42.6859 14.0522 42.7728 14.0522H42.9117C43.0159 14.0522 43.068 14.1217 43.068 14.2085V24.8019C43.068 24.9061 42.9985 24.9582 42.9117 24.9582H42.7033C42.5644 24.9582 42.4775 24.9234 42.4254 24.8019L39.0043 15.1984H38.9696V24.8019C38.9696 24.9061 38.9001 24.9582 38.8133 24.9582H38.6744C38.5702 24.9582 38.5181 24.8887 38.5181 24.8019V14.2085Z" fill="#1D1D1B"/>
<path d="M4.93201 25.9827C4.93201 25.8785 5.00147 25.8264 5.0883 25.8264H9.5514C9.6556 25.8264 9.70769 25.8959 9.70769 25.9827V27.2157C9.70769 27.3199 9.63823 27.372 9.5514 27.372H6.73809C6.73809 27.372 6.65125 27.4067 6.65125 27.4762V30.4284C6.65125 30.4284 6.68599 30.5153 6.73809 30.5153H9.16934C9.27354 30.5153 9.32564 30.5847 9.32564 30.6716V31.9046C9.32564 31.9914 9.25618 32.0609 9.16934 32.0609H6.73809C6.73809 32.0609 6.65125 32.0956 6.65125 32.1651V36.5587C6.65125 36.6629 6.58179 36.715 6.49496 36.715H5.10567C5.01884 36.715 4.94937 36.6455 4.94937 36.5587V25.9827H4.93201Z" fill="#1D1D1B"/>
<path d="M14.6917 29.0565C14.6917 27.7714 14.2749 27.372 13.3198 27.372H12.7641C12.7641 27.372 12.6772 27.4067 12.6772 27.4762V30.6542C12.6772 30.6542 12.712 30.7584 12.7641 30.7584H13.3198C14.2749 30.7584 14.6917 30.3763 14.6917 29.0739M15.0911 36.715C14.9869 36.715 14.9522 36.6803 14.9175 36.6108L13.5803 32.2693H12.7641C12.7641 32.2693 12.6772 32.304 12.6772 32.3561V36.5587C12.6772 36.6629 12.6078 36.715 12.5209 36.715H11.1316C11.0448 36.715 10.9753 36.6455 10.9753 36.5587V25.9827C10.9753 25.8785 11.0448 25.8264 11.1316 25.8264H13.3198C15.2648 25.8264 16.4283 26.6774 16.4283 29.0565C16.4283 30.4805 15.9421 31.3836 15.1258 31.8525L16.6714 36.5587C16.6714 36.5587 16.6714 36.715 16.5846 36.715H15.0911Z" fill="#1D1D1B"/>
<path d="M21.2735 32.9292L20.5094 28.8829H20.4573L19.6584 32.9292H21.2735ZM19.6411 25.9827C19.6758 25.8785 19.7279 25.8264 19.8147 25.8264H21.1693C21.2735 25.8264 21.3256 25.8959 21.3429 25.9827L23.6526 36.5587C23.6526 36.6629 23.6179 36.715 23.5311 36.715H22.1765C22.0723 36.715 22.0202 36.6455 22.0029 36.5587L21.5687 34.3706H19.3979L18.9638 36.5587C18.9638 36.6629 18.8943 36.715 18.7901 36.715H17.4356C17.3314 36.715 17.2966 36.6455 17.2966 36.5587L19.6584 25.9827H19.6411Z" fill="#1D1D1B"/>
<path d="M24.6947 25.9827C24.6947 25.8785 24.7642 25.8264 24.851 25.8264H26.5529C26.6744 25.8264 26.7439 25.8785 26.7786 25.9827L28.7931 33.5196H28.8799V25.9827C28.8799 25.8785 28.9494 25.8264 29.0362 25.8264H30.2171C30.3213 25.8264 30.3734 25.8959 30.3734 25.9827V36.5587C30.3734 36.6629 30.304 36.715 30.2171 36.715H28.6368C28.5153 36.715 28.4458 36.6629 28.4111 36.5587L26.2924 29.0218H26.1882V36.5587C26.1882 36.6629 26.1187 36.715 26.0319 36.715H24.851C24.7642 36.715 24.6947 36.6455 24.6947 36.5587V25.9827Z" fill="#1D1D1B"/>
<path d="M31.8843 31.2794C31.8843 28.2577 31.9537 27.8062 32.0927 27.3546C32.4226 26.3127 33.2388 25.6875 34.5587 25.6875C36.1042 25.6875 37.0941 26.4863 37.1809 28.2924C37.1809 28.3966 37.1636 28.4661 37.0594 28.4834L35.7569 28.7092C35.6527 28.7266 35.5833 28.6745 35.5833 28.5703C35.5312 27.6325 35.2186 27.2331 34.5934 27.2331C34.1071 27.2331 33.8467 27.4415 33.7251 27.8409C33.6383 28.1014 33.6035 28.3272 33.6035 31.262C33.6035 34.1969 33.6383 34.44 33.7251 34.7005C33.8467 35.0999 34.1071 35.3083 34.5934 35.3083C35.2186 35.3083 35.5312 34.9089 35.5833 33.9885C35.5833 33.8669 35.6701 33.8322 35.7569 33.8496L37.0594 34.0753C37.1462 34.0753 37.1809 34.1795 37.1809 34.2664C37.0768 36.0725 36.1042 36.8713 34.5587 36.8713C33.2215 36.8713 32.4226 36.2461 32.0927 35.2041C31.9537 34.7526 31.8843 34.3011 31.8843 31.2794Z" fill="#1D1D1B"/>
<path d="M38.275 25.9827C38.275 25.8785 38.3445 25.8264 38.4313 25.8264H42.8944C42.9986 25.8264 43.0507 25.8959 43.0507 25.9827V27.2157C43.0507 27.3199 42.9812 27.372 42.8944 27.372H40.0811C40.0811 27.372 39.9769 27.4067 39.9769 27.4762V30.3416C39.9769 30.3416 40.0116 30.4458 40.0811 30.4458H42.5124C42.6166 30.4458 42.6687 30.5153 42.6687 30.6021V31.8351C42.6687 31.9393 42.5992 31.9914 42.5124 31.9914H40.0811C40.0811 31.9914 39.9769 32.0261 39.9769 32.0956V35.0826C39.9769 35.0826 40.0116 35.1868 40.0811 35.1868H42.8944C42.9986 35.1868 43.0507 35.2562 43.0507 35.3431V36.5761C43.0507 36.6803 42.9812 36.7323 42.8944 36.7323H38.4313C38.3445 36.7323 38.275 36.6629 38.275 36.5761V26.0001V25.9827Z" fill="#1D1D1B"/>
<path d="M16.2547 38.0522H4.93201V45.0682H16.2547V38.0522Z" fill="#0F559F"/>
<path d="M29.4009 38.3127H18.5991V44.8077H29.4009V38.3127Z" stroke="#EDEDED" stroke-width="0.3" stroke-miterlimit="10"/>
<path d="M43.068 38.0522H31.7452V45.0682H43.068V38.0522Z" fill="#CD1719"/>
<path d="M16.2547 5.68164H4.93201V12.6976H16.2547V5.68164Z" fill="#0F559F"/>
<path d="M29.4009 5.94214H18.5991V12.4371H29.4009V5.94214Z" stroke="#EDEDED" stroke-width="0.3" stroke-miterlimit="10"/>
<path d="M43.068 5.68164H31.7452V12.6976H43.068V5.68164Z" fill="#CD1719"/>
</svg>
