<svg width="16" height="16" viewBox="0 0 16 16" fill="none" xmlns="http://www.w3.org/2000/svg">
<path d="M12.6667 2.66675H3.33333C2.8029 2.66675 2.29419 2.87746 1.91911 3.25253C1.54404 3.62761 1.33333 4.13631 1.33333 4.66675V11.3334C1.33333 11.8638 1.54404 12.3726 1.91911 12.7476C2.29419 13.1227 2.8029 13.3334 3.33333 13.3334H12.6667C13.1971 13.3334 13.7058 13.1227 14.0809 12.7476C14.4559 12.3726 14.6667 11.8638 14.6667 11.3334V4.66675C14.6667 4.13631 14.4559 3.62761 14.0809 3.25253C13.7058 2.87746 13.1971 2.66675 12.6667 2.66675ZM12.3933 4.00008L8.47333 7.92008C8.41135 7.98257 8.33762 8.03216 8.25638 8.06601C8.17514 8.09985 8.088 8.11728 8 8.11728C7.91199 8.11728 7.82485 8.09985 7.74361 8.06601C7.66237 8.03216 7.58864 7.98257 7.52666 7.92008L3.60666 4.00008H12.3933ZM13.3333 11.3334C13.3333 11.5102 13.2631 11.6798 13.1381 11.8048C13.013 11.9298 12.8435 12.0001 12.6667 12.0001H3.33333C3.15652 12.0001 2.98695 11.9298 2.86192 11.8048C2.7369 11.6798 2.66666 11.5102 2.66666 11.3334V4.94008L6.58666 8.86008C6.96166 9.23462 7.46999 9.44499 8 9.44499C8.53 9.44499 9.03833 9.23462 9.41333 8.86008L13.3333 4.94008V11.3334Z" fill="#51994B"/>
</svg>
