<svg width="58" height="58" viewBox="0 0 58 58" fill="none" xmlns="http://www.w3.org/2000/svg">
<g id="Group">
<g id="Group_2">
<path id="Vector" d="M26.2075 0.820251C27.3639 0.820251 28.3013 1.75764 28.3013 2.914V8.66986C28.3013 9.22215 27.8536 9.66986 27.3013 9.66986C26.749 9.66986 26.3013 9.22215 26.3013 8.66986V2.914C26.3013 2.86223 26.2593 2.82025 26.2075 2.82025H2.91406C2.86227 2.82025 2.82031 2.86221 2.82031 2.914V26.2075C2.82031 26.2593 2.86223 26.3012 2.91406 26.3012H26.2075C26.2594 26.3012 26.3013 26.2593 26.3013 26.2075V12.498C26.3013 11.9457 26.749 11.498 27.3013 11.498C27.8536 11.498 28.3013 11.9457 28.3013 12.498V26.2075C28.3013 27.3639 27.3639 28.3012 26.2075 28.3012H2.91406C1.7577 28.3012 0.820312 27.3639 0.820312 26.2075V2.914C0.820312 1.75764 1.7577 0.820251 2.91406 0.820251H26.2075Z" fill="url(#paint0_linear_742_3319)"/>
<path id="Vector_2" d="M55.0859 0.820251C56.2422 0.820251 57.1796 1.75767 57.1796 2.914V26.2075C57.1796 27.3639 56.2422 28.3012 55.0859 28.3012H40.1693C39.617 28.3012 39.1693 27.8535 39.1693 27.3012C39.1693 26.7489 39.617 26.3012 40.1693 26.3012H55.0859C55.1377 26.3012 55.1796 26.2593 55.1796 26.2075V2.914C55.1796 2.86223 55.1377 2.82025 55.0859 2.82025H31.7925C31.7407 2.82025 31.6987 2.86223 31.6987 2.914V26.2075C31.6987 26.2593 31.7407 26.3012 31.7925 26.3012H36.3412C36.8935 26.3012 37.3412 26.7489 37.3412 27.3012C37.3412 27.8535 36.8935 28.3012 36.3412 28.3012H31.7925C30.6362 28.3012 29.6987 27.3639 29.6987 26.2075V2.914C29.6987 1.75764 30.6362 0.820251 31.7925 0.820251H55.0859Z" fill="url(#paint1_linear_742_3319)"/>
<path id="Vector_3" d="M26.2075 29.6987C27.3639 29.6987 28.3013 30.636 28.3013 31.7924V43.4391C28.3013 43.9914 27.8536 44.4391 27.3013 44.4391C26.749 44.4391 26.3013 43.9914 26.3013 43.4391V31.7924C26.3013 31.7406 26.2594 31.6987 26.2075 31.6987H2.91406C2.86223 31.6987 2.82031 31.7406 2.82031 31.7924V55.0859C2.82031 55.1377 2.86223 55.1796 2.91406 55.1796H26.2075C26.2594 55.1796 26.3013 55.1377 26.3013 55.0859V47.2673C26.3013 46.715 26.749 46.2673 27.3013 46.2673C27.8536 46.2673 28.3013 46.715 28.3013 47.2673V55.0859C28.3013 56.2423 27.3639 57.1796 26.2075 57.1796H2.91406C1.7577 57.1796 0.820312 56.2423 0.820312 55.0859V31.7924C0.820312 30.636 1.7577 29.6987 2.91406 29.6987H26.2075Z" fill="url(#paint2_linear_742_3319)"/>
<path id="Vector_4" d="M55.086 29.6987C56.2423 29.6987 57.1797 30.6361 57.1797 31.7924V55.0859C57.1797 56.2423 56.2423 57.1796 55.086 57.1796H31.7925C30.6362 57.1796 29.6987 56.2423 29.6987 55.0859V31.7924C29.6987 30.636 30.6362 29.6987 31.7925 29.6987H55.086ZM55.086 31.6987H31.7925C31.7407 31.6987 31.6987 31.7406 31.6987 31.7924V55.0859C31.6987 55.1377 31.7407 55.1796 31.7925 55.1796H55.086C55.1378 55.1796 55.1797 55.1377 55.1797 55.0859V31.7924C55.1797 31.7406 55.1378 31.6987 55.086 31.6987Z" fill="url(#paint3_linear_742_3319)"/>
<path id="Vector_5" d="M10.8872 38.4047C11.4395 38.4047 11.8872 38.8524 11.8872 39.4047V50.0217C11.8872 50.574 11.4395 51.0217 10.8872 51.0217C10.3349 51.0217 9.88721 50.574 9.88721 50.0217V39.4047C9.88721 38.8524 10.3349 38.4047 10.8872 38.4047Z" fill="url(#paint4_linear_742_3319)"/>
<path id="Vector_6" d="M18.2344 38.4047C18.7867 38.4047 19.2344 38.8524 19.2344 39.4047V50.0217C19.2344 50.574 18.7867 51.0217 18.2344 51.0217C17.6821 51.0217 17.2344 50.574 17.2344 50.0217V39.4047C17.2344 38.8524 17.6821 38.4047 18.2344 38.4047Z" fill="url(#paint5_linear_742_3319)"/>
<path id="Vector_7" d="M18.2344 43.5311C18.7867 43.5311 19.2344 43.9788 19.2344 44.5311C19.2344 45.0834 18.7867 45.5311 18.2344 45.5311H10.8872C10.3349 45.5311 9.88721 45.0834 9.88721 44.5311C9.88721 43.9788 10.3349 43.5311 10.8872 43.5311H18.2344Z" fill="url(#paint6_linear_742_3319)"/>
<path id="Vector_8" d="M38.2691 10.0905C38.6926 9.05606 40.157 9.05457 40.5933 10.1159L44.7018 21.0026C44.8968 21.5193 44.636 22.0963 44.1192 22.2913C43.6025 22.4863 43.0256 22.2255 42.8306 21.7088L39.4224 12.6779L35.9829 21.7116C35.8004 22.1909 35.2891 22.4485 34.8038 22.3254L34.6924 22.2902C34.1763 22.0937 33.9173 21.5159 34.1139 20.9998L38.2691 10.0905Z" fill="url(#paint7_linear_742_3319)"/>
<path id="Vector_9" d="M42.4938 17.6444C43.0461 17.6444 43.4938 18.0921 43.4938 18.6444C43.4938 19.1967 43.0461 19.6444 42.4938 19.6444H36.3413C35.789 19.6444 35.3413 19.1967 35.3413 18.6444C35.3413 18.0921 35.789 17.6444 36.3413 17.6444H42.4938Z" fill="url(#paint8_linear_742_3319)"/>
<path id="Vector_10" d="M49.4222 12.7114C50.3958 12.7114 51.3286 13.0015 52.119 13.5355C52.5766 13.8447 52.697 14.4663 52.3878 14.9239C52.0787 15.3816 51.457 15.5019 50.9994 15.1928C50.5372 14.8805 49.9936 14.7114 49.4222 14.7114C47.8636 14.7114 46.6001 15.9749 46.6001 17.5335C46.6001 19.092 47.8637 20.3556 49.4222 20.3556C50.0097 20.3556 50.4854 20.1789 50.8548 19.8499C50.9285 19.7842 50.9984 19.7121 51.0641 19.6338C51.4191 19.2107 52.0499 19.1556 52.4729 19.5106C52.896 19.8656 52.9511 20.4964 52.5961 20.9194C52.4687 21.0712 52.3315 21.2129 52.185 21.3434C51.4449 22.0026 50.4946 22.3556 49.4222 22.3556C46.7591 22.3556 44.6001 20.1966 44.6001 17.5335C44.6001 14.8703 46.759 12.7114 49.4222 12.7114Z" fill="url(#paint9_linear_742_3319)"/>
<path id="Vector_11" d="M13.8489 9.3139C14.4012 9.3139 14.8489 9.76162 14.8489 10.3139C14.8489 10.8662 14.4012 11.3139 13.8489 11.3139H7.75098C7.19869 11.3139 6.75098 10.8662 6.75098 10.3139C6.75098 9.76162 7.19869 9.3139 7.75098 9.3139H13.8489Z" fill="url(#paint10_linear_742_3319)"/>
<path id="Vector_12" d="M10.7876 9.6665C11.3399 9.6665 11.7876 10.1142 11.7876 10.6665V21.3556C11.7876 21.9079 11.3399 22.3556 10.7876 22.3556C10.2353 22.3556 9.7876 21.9079 9.7876 21.3556V10.6665C9.7876 10.1142 10.2353 9.6665 10.7876 9.6665Z" fill="url(#paint11_linear_742_3319)"/>
<path id="Vector_13" d="M17.9498 12.7113C20.3915 12.7113 22.3709 14.6906 22.3709 17.1323V17.6637C22.3709 18.2168 21.922 18.6648 21.369 18.6637L14.5454 18.6504C14.0079 18.6494 13.5673 18.2236 13.548 17.6865L13.5288 17.1378C13.5288 14.6918 15.5071 12.7113 17.9498 12.7113ZM17.9498 14.7113C16.7793 14.7113 15.8036 15.5417 15.5775 16.6241L15.5718 16.6523L20.3248 16.6613L20.2911 16.5133C20.0306 15.5255 19.1614 14.7848 18.109 14.7165L17.9498 14.7113Z" fill="url(#paint12_linear_742_3319)"/>
<path id="Vector_14" d="M14.5493 16.6504L21.3728 16.6638C21.9251 16.6649 22.3719 17.1135 22.3709 17.6658C22.3698 18.2181 21.9212 18.6649 21.3689 18.6638L14.5454 18.6504C13.9931 18.6493 13.5463 18.2007 13.5474 17.6485C13.5485 17.0962 13.997 16.6493 14.5493 16.6504Z" fill="url(#paint13_linear_742_3319)"/>
<path id="Vector_15" d="M14.5425 16.5335C15.0948 16.5335 15.5425 16.9812 15.5425 17.5335C15.5425 19.101 16.8004 20.3556 18.3646 20.3556C18.9521 20.3556 19.4278 20.1789 19.7958 19.8512C19.8234 19.8262 19.8234 19.8263 19.8502 19.8009C20.25 19.4199 20.883 19.4351 21.264 19.8349C21.6451 20.2347 21.6299 20.8676 21.2301 21.2487C21.1799 21.2961 21.1799 21.2961 21.1273 21.3435C20.3872 22.0026 19.4369 22.3556 18.3646 22.3556C15.697 22.3556 13.5425 20.2067 13.5425 17.5335C13.5425 16.9812 13.9902 16.5335 14.5425 16.5335Z" fill="url(#paint14_linear_742_3319)"/>
<path id="Vector_16" d="M42.9138 38.1924C43.4661 38.1924 43.9138 38.6401 43.9138 39.1924C43.9138 39.7447 43.4661 40.1924 42.9138 40.1924H39.2612V49.2334L42.9138 49.2341C43.4267 49.2341 43.8493 49.6202 43.9071 50.1175L43.9138 50.2341C43.9138 50.7864 43.4661 51.2341 42.9138 51.2341H38.2612C37.7089 51.2341 37.2612 50.7864 37.2612 50.2341V39.1924C37.2612 38.6401 37.7089 38.1924 38.2612 38.1924H42.9138Z" fill="url(#paint15_linear_742_3319)"/>
<path id="Vector_17" d="M42.5707 43.7132C43.123 43.7132 43.5707 44.1609 43.5707 44.7132C43.5707 45.2655 43.123 45.7132 42.5707 45.7132H38.2612C37.7089 45.7132 37.2612 45.2655 37.2612 44.7132C37.2612 44.1609 37.7089 43.7132 38.2612 43.7132H42.5707Z" fill="url(#paint16_linear_742_3319)"/>
<path id="Vector_18" d="M46.3115 41.5898C46.8638 41.5898 47.3115 42.0375 47.3115 42.5898V50.2341C47.3115 50.7864 46.8638 51.2341 46.3115 51.2341C45.7592 51.2341 45.3115 50.7864 45.3115 50.2341V42.5898C45.3115 42.0375 45.7592 41.5898 46.3115 41.5898Z" fill="url(#paint17_linear_742_3319)"/>
<path id="Vector_19" d="M48.1881 41.8672C48.6869 41.6302 49.2834 41.8423 49.5205 42.3411C49.7576 42.84 49.5454 43.4365 49.0466 43.6736C48.8828 43.7514 48.5606 43.9725 48.1895 44.3631C47.5809 45.0038 47.3115 45.4649 47.3115 45.6788C47.3115 46.2311 46.8638 46.6788 46.3115 46.6788C45.7592 46.6788 45.3115 46.2311 45.3115 45.6788C45.3115 44.8157 45.8075 43.9668 46.7395 42.9856C47.2934 42.4025 47.8158 42.0442 48.1881 41.8672Z" fill="url(#paint18_linear_742_3319)"/>
<path id="Vector_20" d="M5.21777 4.21765C5.77006 4.21765 6.21777 4.66537 6.21777 5.21765V6.91647C6.21777 7.46876 5.77006 7.91647 5.21777 7.91647C4.66549 7.91647 4.21777 7.46876 4.21777 6.91647V5.21765C4.21777 4.66537 4.66549 4.21765 5.21777 4.21765Z" fill="url(#paint19_linear_742_3319)"/>
<path id="Vector_21" d="M34.0962 4.21765C34.6485 4.21765 35.0962 4.66537 35.0962 5.21765V6.91647C35.0962 7.46876 34.6485 7.91647 34.0962 7.91647C33.5439 7.91647 33.0962 7.46876 33.0962 6.91647V5.21765C33.0962 4.66537 33.5439 4.21765 34.0962 4.21765Z" fill="url(#paint20_linear_742_3319)"/>
<path id="Vector_22" d="M5.21777 33.0961C5.77006 33.0961 6.21777 33.5438 6.21777 34.0961V35.7948C6.21777 36.3471 5.77006 36.7948 5.21777 36.7948C4.66549 36.7948 4.21777 36.3471 4.21777 35.7948V34.0961C4.21777 33.5438 4.66549 33.0961 5.21777 33.0961Z" fill="url(#paint21_linear_742_3319)"/>
<path id="Vector_23" d="M34.0962 33.0961C34.6485 33.0961 35.0962 33.5438 35.0962 34.0961V35.7948C35.0962 36.3471 34.6485 36.7948 34.0962 36.7948C33.5439 36.7948 33.0962 36.3471 33.0962 35.7948V34.0961C33.0962 33.5438 33.5439 33.0961 34.0962 33.0961Z" fill="url(#paint22_linear_742_3319)"/>
</g>
</g>
<defs>
<linearGradient id="paint0_linear_742_3319" x1="-12.9202" y1="0.820251" x2="-12.9202" y2="28.3012" gradientUnits="userSpaceOnUse">
<stop stop-color="#59A852"/>
<stop offset="1" stop-color="#3F773A"/>
</linearGradient>
<linearGradient id="paint1_linear_742_3319" x1="15.9583" y1="0.820251" x2="15.9583" y2="28.3012" gradientUnits="userSpaceOnUse">
<stop stop-color="#59A852"/>
<stop offset="1" stop-color="#3F773A"/>
</linearGradient>
<linearGradient id="paint2_linear_742_3319" x1="-12.9202" y1="29.6987" x2="-12.9202" y2="57.1796" gradientUnits="userSpaceOnUse">
<stop stop-color="#59A852"/>
<stop offset="1" stop-color="#3F773A"/>
</linearGradient>
<linearGradient id="paint3_linear_742_3319" x1="15.9582" y1="29.6987" x2="15.9582" y2="57.1796" gradientUnits="userSpaceOnUse">
<stop stop-color="#59A852"/>
<stop offset="1" stop-color="#3F773A"/>
</linearGradient>
<linearGradient id="paint4_linear_742_3319" x1="8.88721" y1="38.4047" x2="8.88721" y2="51.0217" gradientUnits="userSpaceOnUse">
<stop stop-color="#59A852"/>
<stop offset="1" stop-color="#3F773A"/>
</linearGradient>
<linearGradient id="paint5_linear_742_3319" x1="16.2344" y1="38.4047" x2="16.2344" y2="51.0217" gradientUnits="userSpaceOnUse">
<stop stop-color="#59A852"/>
<stop offset="1" stop-color="#3F773A"/>
</linearGradient>
<linearGradient id="paint6_linear_742_3319" x1="5.21361" y1="43.5311" x2="5.21361" y2="45.5311" gradientUnits="userSpaceOnUse">
<stop stop-color="#59A852"/>
<stop offset="1" stop-color="#3F773A"/>
</linearGradient>
<linearGradient id="paint7_linear_742_3319" x1="28.6889" y1="9.31726" x2="28.6889" y2="22.356" gradientUnits="userSpaceOnUse">
<stop stop-color="#59A852"/>
<stop offset="1" stop-color="#3F773A"/>
</linearGradient>
<linearGradient id="paint8_linear_742_3319" x1="31.2651" y1="17.6444" x2="31.2651" y2="19.6444" gradientUnits="userSpaceOnUse">
<stop stop-color="#59A852"/>
<stop offset="1" stop-color="#3F773A"/>
</linearGradient>
<linearGradient id="paint9_linear_742_3319" x1="40.4851" y1="12.7114" x2="40.4851" y2="22.3556" gradientUnits="userSpaceOnUse">
<stop stop-color="#59A852"/>
<stop offset="1" stop-color="#3F773A"/>
</linearGradient>
<linearGradient id="paint10_linear_742_3319" x1="2.70202" y1="9.3139" x2="2.70202" y2="11.3139" gradientUnits="userSpaceOnUse">
<stop stop-color="#59A852"/>
<stop offset="1" stop-color="#3F773A"/>
</linearGradient>
<linearGradient id="paint11_linear_742_3319" x1="8.7876" y1="9.6665" x2="8.7876" y2="22.3556" gradientUnits="userSpaceOnUse">
<stop stop-color="#59A852"/>
<stop offset="1" stop-color="#3F773A"/>
</linearGradient>
<linearGradient id="paint12_linear_742_3319" x1="9.10776" y1="12.7113" x2="9.10776" y2="18.6637" gradientUnits="userSpaceOnUse">
<stop stop-color="#59A852"/>
<stop offset="1" stop-color="#3F773A"/>
</linearGradient>
<linearGradient id="paint13_linear_742_3319" x1="9.13561" y1="16.6504" x2="9.13561" y2="18.6638" gradientUnits="userSpaceOnUse">
<stop stop-color="#59A852"/>
<stop offset="1" stop-color="#3F773A"/>
</linearGradient>
<linearGradient id="paint14_linear_742_3319" x1="9.54363" y1="16.5335" x2="9.54363" y2="22.3556" gradientUnits="userSpaceOnUse">
<stop stop-color="#59A852"/>
<stop offset="1" stop-color="#3F773A"/>
</linearGradient>
<linearGradient id="paint15_linear_742_3319" x1="33.9349" y1="38.1924" x2="33.9349" y2="51.2341" gradientUnits="userSpaceOnUse">
<stop stop-color="#59A852"/>
<stop offset="1" stop-color="#3F773A"/>
</linearGradient>
<linearGradient id="paint16_linear_742_3319" x1="34.1065" y1="43.7132" x2="34.1065" y2="45.7132" gradientUnits="userSpaceOnUse">
<stop stop-color="#59A852"/>
<stop offset="1" stop-color="#3F773A"/>
</linearGradient>
<linearGradient id="paint17_linear_742_3319" x1="44.3115" y1="41.5898" x2="44.3115" y2="51.2341" gradientUnits="userSpaceOnUse">
<stop stop-color="#59A852"/>
<stop offset="1" stop-color="#3F773A"/>
</linearGradient>
<linearGradient id="paint18_linear_742_3319" x1="43.1585" y1="41.7702" x2="43.1585" y2="46.6788" gradientUnits="userSpaceOnUse">
<stop stop-color="#59A852"/>
<stop offset="1" stop-color="#3F773A"/>
</linearGradient>
<linearGradient id="paint19_linear_742_3319" x1="3.21777" y1="4.21765" x2="3.21777" y2="7.91647" gradientUnits="userSpaceOnUse">
<stop stop-color="#59A852"/>
<stop offset="1" stop-color="#3F773A"/>
</linearGradient>
<linearGradient id="paint20_linear_742_3319" x1="32.0962" y1="4.21765" x2="32.0962" y2="7.91647" gradientUnits="userSpaceOnUse">
<stop stop-color="#59A852"/>
<stop offset="1" stop-color="#3F773A"/>
</linearGradient>
<linearGradient id="paint21_linear_742_3319" x1="3.21777" y1="33.0961" x2="3.21777" y2="36.7948" gradientUnits="userSpaceOnUse">
<stop stop-color="#59A852"/>
<stop offset="1" stop-color="#3F773A"/>
</linearGradient>
<linearGradient id="paint22_linear_742_3319" x1="32.0962" y1="33.0961" x2="32.0962" y2="36.7948" gradientUnits="userSpaceOnUse">
<stop stop-color="#59A852"/>
<stop offset="1" stop-color="#3F773A"/>
</linearGradient>
</defs>
</svg>
