<svg width="24" height="24" viewBox="0 0 24 24" fill="none" xmlns="http://www.w3.org/2000/svg">
<path d="M0 12C0 5.37258 5.37258 0 12 0C18.6274 0 24 5.37258 24 12C24 18.6274 18.6274 24 12 24C5.37258 24 0 18.6274 0 12Z" fill="white"/>
<path d="M11.534 7.75598L15.112 11.3339L7.29139 11.3292C7.11385 11.3292 6.94359 11.3998 6.81805 11.5253C6.69251 11.6508 6.62199 11.8211 6.62199 11.9986C6.62199 12.1762 6.69251 12.3464 6.81805 12.472C6.94359 12.5975 7.11385 12.668 7.29138 12.668L15.112 12.6633L11.534 16.2413C11.409 16.3663 11.3388 16.5359 11.3388 16.7127C11.3388 16.8895 11.409 17.059 11.534 17.1841C11.659 17.3091 11.8286 17.3793 12.0054 17.3793C12.1822 17.3793 12.3518 17.3091 12.4768 17.1841L17.1909 12.47C17.2517 12.4077 17.2998 12.334 17.3323 12.2532C17.3997 12.0902 17.3997 11.9071 17.3323 11.7441C17.2998 11.6632 17.2517 11.5896 17.1909 11.5272L12.4768 6.81317C12.3518 6.68815 12.1822 6.61791 12.0054 6.61791C11.8286 6.61791 11.659 6.68815 11.534 6.81317C11.409 6.9382 11.3388 7.10777 11.3388 7.28458C11.3388 7.46139 11.409 7.63096 11.534 7.75598Z" fill="#292929"/>
</svg>
