<svg width="20" height="20" viewBox="0 0 20 20" fill="none" xmlns="http://www.w3.org/2000/svg">
<path fill-rule="evenodd" clip-rule="evenodd" d="M19.7071 12.8116C19.3166 12.4211 18.6834 12.4211 18.2929 12.8116L15 16.1045V14.5187C15 12.6802 14.6379 10.8597 13.9343 9.16117C13.2307 7.46261 12.1995 5.91926 10.8995 4.61924C9.59947 3.31922 8.05613 2.28799 6.35757 1.58442C4.65901 0.880858 2.83851 0.518738 1 0.518738C0.447716 0.518738 -2.41411e-08 0.966454 0 1.51874C2.41411e-08 2.07102 0.447716 2.51874 1 2.51874C2.57586 2.51874 4.13629 2.82913 5.5922 3.43218C7.04811 4.03524 8.37098 4.91915 9.48528 6.03346C10.5996 7.14776 11.4835 8.47063 12.0866 9.92654C12.6896 11.3824 13 12.9429 13 14.5187V16.1045L9.70711 12.8116C9.31658 12.4211 8.68342 12.4211 8.29289 12.8116C7.90237 13.2022 7.90237 13.8353 8.29289 14.2258L13.2929 19.2258C13.6834 19.6164 14.3166 19.6164 14.7071 19.2258L19.7071 14.2258C20.0976 13.8353 20.0976 13.2022 19.7071 12.8116Z" fill="#292929"/>
</svg>
