<svg width="40" height="40" viewBox="0 0 40 40" fill="none" xmlns="http://www.w3.org/2000/svg">
<path d="M0.5 20C0.5 9.23045 9.23045 0.5 20 0.5C30.7696 0.5 39.5 9.23045 39.5 20C39.5 30.7696 30.7696 39.5 20 39.5C9.23045 39.5 0.5 30.7696 0.5 20Z" stroke="#292929"/>
<path d="M15.3334 20.6678L23.0601 20.6678L21.5267 22.1944C21.4646 22.2566 21.4153 22.3304 21.3816 22.4116C21.348 22.4928 21.3307 22.5799 21.3307 22.6678C21.3307 22.7557 21.348 22.8427 21.3816 22.9239C21.4153 23.0051 21.4646 23.0789 21.5267 23.1411C21.5889 23.2033 21.6627 23.2526 21.7439 23.2862C21.8251 23.3198 21.9122 23.3372 22.0001 23.3372C22.088 23.3372 22.175 23.3198 22.2562 23.2862C22.3375 23.2526 22.4112 23.2033 22.4734 23.1411L25.1401 20.4744C25.2008 20.411 25.2483 20.3363 25.2801 20.2544C25.3467 20.0921 25.3467 19.9101 25.2801 19.7478C25.2483 19.6659 25.2008 19.5912 25.1401 19.5278L22.4734 16.8611C22.4114 16.7986 22.3377 16.749 22.2565 16.7152C22.1752 16.6813 22.0881 16.6639 22.0001 16.6639C21.9121 16.6639 21.8249 16.6813 21.7437 16.7152C21.6624 16.749 21.5887 16.7986 21.5267 16.8611C21.4643 16.9231 21.4147 16.9968 21.3808 17.078C21.347 17.1593 21.3295 17.2464 21.3295 17.3344C21.3295 17.4224 21.347 17.5096 21.3808 17.5908C21.4147 17.6721 21.4643 17.7458 21.5267 17.8078L23.0601 19.3344L15.3334 19.3344C15.1566 19.3344 14.987 19.4047 14.862 19.5297C14.737 19.6547 14.6667 19.8243 14.6667 20.0011C14.6667 20.1779 14.737 20.3475 14.862 20.4725C14.987 20.5975 15.1566 20.6678 15.3334 20.6678Z" fill="#292929"/>
</svg>
