<svg width="40" height="40" viewBox="0 0 40 40" fill="none" xmlns="http://www.w3.org/2000/svg">
<path d="M0.5 20C0.5 9.23045 9.23045 0.5 20 0.5C30.7696 0.5 39.5 9.23045 39.5 20C39.5 30.7696 30.7696 39.5 20 39.5C9.23045 39.5 0.5 30.7696 0.5 20Z" stroke="#292929"/>
<path d="M24.6627 19.3333H16.936L18.4694 17.8067C18.5315 17.7445 18.5808 17.6707 18.6145 17.5895C18.6481 17.5083 18.6654 17.4212 18.6654 17.3333C18.6654 17.2454 18.6481 17.1584 18.6145 17.0772C18.5808 16.996 18.5315 16.9222 18.4694 16.86C18.4072 16.7978 18.3334 16.7485 18.2522 16.7149C18.171 16.6813 18.0839 16.6639 17.996 16.6639C17.9081 16.6639 17.8211 16.6813 17.7399 16.7149C17.6586 16.7485 17.5849 16.7978 17.5227 16.86L14.856 19.5267C14.7953 19.5901 14.7478 19.6648 14.716 19.7467C14.6493 19.909 14.6493 20.091 14.716 20.2533C14.7478 20.3352 14.7953 20.4099 14.856 20.4733L17.5227 23.14C17.5847 23.2025 17.6584 23.2521 17.7396 23.2859C17.8209 23.3198 17.908 23.3372 17.996 23.3372C18.084 23.3372 18.1712 23.3198 18.2524 23.2859C18.3336 23.2521 18.4074 23.2025 18.4694 23.14C18.5318 23.078 18.5814 23.0043 18.6153 22.9231C18.6491 22.8418 18.6666 22.7547 18.6666 22.6667C18.6666 22.5787 18.6491 22.4915 18.6153 22.4103C18.5814 22.329 18.5318 22.2553 18.4694 22.1933L16.936 20.6667H24.6627C24.8395 20.6667 25.0091 20.5964 25.1341 20.4714C25.2591 20.3464 25.3294 20.1768 25.3294 20C25.3294 19.8232 25.2591 19.6536 25.1341 19.5286C25.0091 19.4036 24.8395 19.3333 24.6627 19.3333Z" fill="#292929"/>
</svg>
