<svg width="16" height="16" viewBox="0 0 16 16" fill="none" xmlns="http://www.w3.org/2000/svg">
<path d="M12.1999 5.72767L12.8065 5.12767C12.9321 5.00214 13.0026 4.83187 13.0026 4.65434C13.0026 4.4768 12.9321 4.30654 12.8065 4.181C12.681 4.05547 12.5107 3.98494 12.3332 3.98494C12.1557 3.98494 11.9854 4.05547 11.8599 4.181L11.2599 4.78767C10.3256 4.06491 9.17775 3.67276 7.99652 3.67276C6.81529 3.67276 5.66749 4.06491 4.73319 4.78767L4.12652 4.17434C4.0001 4.0488 3.82899 3.97863 3.65083 3.97925C3.47267 3.97988 3.30206 4.05125 3.17652 4.17767C3.05099 4.30409 2.98081 4.4752 2.98144 4.65336C2.98206 4.83152 3.05343 5.00214 3.17985 5.12767L3.79319 5.73434C3.06187 6.66603 2.66505 7.81657 2.66652 9.001C2.66434 9.85129 2.8655 10.6898 3.2532 11.4465C3.64091 12.2033 4.20393 12.8563 4.89532 13.3513C5.5867 13.8462 6.3864 14.1687 7.22773 14.2918C8.06906 14.4149 8.92762 14.3351 9.73182 14.0589C10.536 13.7828 11.2625 13.3184 11.8508 12.7044C12.4391 12.0905 12.872 11.3448 13.1135 10.5295C13.355 9.71426 13.3981 8.85306 13.2392 8.01777C13.0802 7.18247 12.7239 6.39727 12.1999 5.72767ZM7.99986 13.001C7.20873 13.001 6.43537 12.7664 5.77757 12.3269C5.11978 11.8874 4.60709 11.2626 4.30434 10.5317C4.00159 9.80083 3.92237 8.99657 4.07671 8.22064C4.23105 7.44472 4.61202 6.73199 5.17143 6.17258C5.73084 5.61317 6.44357 5.2322 7.21949 5.07786C7.99542 4.92352 8.79968 5.00274 9.53059 5.30549C10.2615 5.60824 10.8862 6.12093 11.3257 6.77872C11.7653 7.43652 11.9999 8.20988 11.9999 9.001C11.9999 10.0619 11.5784 11.0793 10.8283 11.8294C10.0781 12.5796 9.06072 13.001 7.99986 13.001ZM6.66652 3.001H9.33319C9.51 3.001 9.67957 2.93077 9.80459 2.80574C9.92962 2.68072 9.99986 2.51115 9.99986 2.33434C9.99986 2.15753 9.92962 1.98796 9.80459 1.86293C9.67957 1.73791 9.51 1.66767 9.33319 1.66767H6.66652C6.48971 1.66767 6.32014 1.73791 6.19512 1.86293C6.07009 1.98796 5.99985 2.15753 5.99985 2.33434C5.99985 2.51115 6.07009 2.68072 6.19512 2.80574C6.32014 2.93077 6.48971 3.001 6.66652 3.001ZM8.66652 7.001C8.66652 6.82419 8.59628 6.65462 8.47126 6.5296C8.34624 6.40458 8.17667 6.33434 7.99986 6.33434C7.82304 6.33434 7.65347 6.40458 7.52845 6.5296C7.40343 6.65462 7.33319 6.82419 7.33319 7.001V8.261C7.18223 8.39602 7.07584 8.57369 7.02807 8.7705C6.9803 8.96731 6.99342 9.17399 7.06568 9.36318C7.13795 9.55238 7.26595 9.71517 7.43277 9.83002C7.59958 9.94487 7.79733 10.0064 7.99986 10.0064C8.20238 10.0064 8.40013 9.94487 8.56694 9.83002C8.73376 9.71517 8.86176 9.55238 8.93403 9.36318C9.00629 9.17399 9.01941 8.96731 8.97164 8.7705C8.92387 8.57369 8.81748 8.39602 8.66652 8.261V7.001Z" fill="black" fill-opacity="0.64"/>
</svg>
