<svg width="17" height="16" viewBox="0 0 17 16" fill="none" xmlns="http://www.w3.org/2000/svg">
<path d="M12.5 6.00001H11.1667C10.7667 6.00001 10.5 6.26668 10.5 6.66668C10.5 7.06668 10.7667 7.33334 11.1667 7.33334H12.5C12.9 7.33334 13.1667 7.60001 13.1667 8.00001V12.6667C13.1667 13.0667 12.9 13.3333 12.5 13.3333H4.5C4.1 13.3333 3.83333 13.0667 3.83333 12.6667V8.00001C3.83333 7.60001 4.1 7.33334 4.5 7.33334H5.83333C6.23333 7.33334 6.5 7.06668 6.5 6.66668C6.5 6.26668 6.23333 6.00001 5.83333 6.00001H4.5C3.36667 6.00001 2.5 6.86668 2.5 8.00001V12.6667C2.5 13.8 3.36667 14.6667 4.5 14.6667H12.5C13.6333 14.6667 14.5 13.8 14.5 12.6667V8.00001C14.5 6.86668 13.6333 6.00001 12.5 6.00001ZM6.03333 9.80001L8.03333 11.8C8.16667 11.9333 8.3 12 8.5 12C8.7 12 8.83333 11.9333 8.96667 11.8L10.9667 9.80001C11.2333 9.53334 11.2333 9.13334 10.9667 8.86668C10.7 8.60001 10.3 8.60001 10.0333 8.86668L9.16667 9.73334V2.00001C9.16667 1.60001 8.9 1.33334 8.5 1.33334C8.1 1.33334 7.83333 1.60001 7.83333 2.00001V9.73334L6.96667 8.86668C6.7 8.60001 6.3 8.60001 6.03333 8.86668C5.76667 9.13334 5.76667 9.53334 6.03333 9.80001Z" fill="#292929"/>
</svg>
