<svg width="28" height="28" viewBox="0 0 28 28" fill="none" xmlns="http://www.w3.org/2000/svg">
<path d="M23.3337 8.66675H22.0003V4.66675C22.0003 3.60588 21.5789 2.58847 20.8288 1.83832C20.0786 1.08818 19.0612 0.666748 18.0003 0.666748H4.66699C3.60613 0.666748 2.58871 1.08818 1.83857 1.83832C1.08842 2.58847 0.666992 3.60588 0.666992 4.66675V20.6667C0.668306 20.93 0.747509 21.1869 0.89462 21.4052C1.04173 21.6235 1.25017 21.7934 1.49366 21.8934C1.6519 21.9681 1.82542 22.0046 2.00033 22.0001C2.1758 22.0011 2.34975 21.9675 2.5122 21.9011C2.67465 21.8348 2.82241 21.737 2.94699 21.6134L6.69366 17.8534H8.66699V19.7734C8.66699 20.8343 9.08842 21.8517 9.83856 22.6018C10.5887 23.352 11.6061 23.7734 12.667 23.7734H21.8937L25.0537 26.9467C25.1782 27.0703 25.326 27.1681 25.4884 27.2344C25.6509 27.3008 25.8249 27.3344 26.0003 27.3334C26.1752 27.3379 26.3488 27.3014 26.507 27.2267C26.7505 27.1267 26.9589 26.9569 27.106 26.7386C27.2531 26.5203 27.3323 26.2633 27.3337 26.0001V12.6667C27.3337 11.6059 26.9122 10.5885 26.1621 9.83832C25.4119 9.08817 24.3945 8.66675 23.3337 8.66675ZM8.66699 12.6667V15.1867H6.14699C5.97152 15.1857 5.79757 15.2194 5.63512 15.2857C5.47267 15.3521 5.32491 15.4498 5.20033 15.5734L3.33366 17.4534V4.66675C3.33366 4.31313 3.47413 3.97399 3.72418 3.72394C3.97423 3.47389 4.31337 3.33341 4.66699 3.33341H18.0003C18.3539 3.33341 18.6931 3.47389 18.9431 3.72394C19.1932 3.97399 19.3337 4.31313 19.3337 4.66675V8.66675H12.667C11.6061 8.66675 10.5887 9.08817 9.83856 9.83832C9.08842 10.5885 8.66699 11.6059 8.66699 12.6667ZM24.667 22.7867L23.3337 21.4534C23.2102 21.3274 23.0629 21.2272 22.9004 21.1585C22.7379 21.0899 22.5634 21.0541 22.387 21.0534H12.667C12.3134 21.0534 11.9742 20.9129 11.7242 20.6629C11.4741 20.4128 11.3337 20.0737 11.3337 19.7201V12.6667C11.3337 12.3131 11.4741 11.974 11.7242 11.7239C11.9742 11.4739 12.3134 11.3334 12.667 11.3334H23.3337C23.6873 11.3334 24.0264 11.4739 24.2765 11.7239C24.5265 11.974 24.667 12.3131 24.667 12.6667V22.7867Z" fill="#424242"/>
</svg>
