<svg width="64" height="64" viewBox="0 0 64 64" fill="none" xmlns="http://www.w3.org/2000/svg">
<path d="M59.1664 61.6686L47.4096 34.6576C47.3449 34.509 47.3121 34.3513 47.3121 34.189V22.2027H48.1659C48.6837 22.2027 49.1034 21.7829 49.1034 21.2652C49.1034 20.7474 48.6837 20.3277 48.1659 20.3277H42.8581V16.3858C43.2747 16.4256 43.6913 16.4476 44.1066 16.4476C47.5688 16.4476 50.9353 15.0811 53.4159 12.6005C56.4139 9.60246 57.7845 5.31035 57.0823 1.11911C57.0163 0.724613 56.7072 0.415488 56.3127 0.349364C52.1219 -0.35276 47.8294 1.01774 44.8313 4.01585C44.0643 4.78285 43.4046 5.63497 42.8581 6.5481V5.53247C42.8581 5.01473 42.4384 4.59498 41.9206 4.59498C41.4027 4.59498 40.9831 5.01473 40.9831 5.53247V6.3791C40.4366 5.46597 39.7768 4.61385 39.0098 3.84685C36.0116 0.848987 31.7191 -0.521509 27.5284 0.180614C27.1339 0.246739 26.8247 0.555738 26.7586 0.950362C26.0564 5.1416 27.427 9.43371 30.4251 12.4317C32.9058 14.9124 36.2721 16.2788 39.7346 16.2788C40.1497 16.2788 40.5663 16.2568 40.983 16.2171V20.3279H35.328C34.8101 20.3279 34.3905 20.7477 34.3905 21.2654C34.3905 21.7832 34.8101 22.2029 35.328 22.2029H36.1819V34.1893C36.1819 34.3515 36.149 34.5091 36.0843 34.6579L32.7815 42.2459V35.5124C32.7815 34.5935 32.034 33.846 31.1152 33.846H26.8847C26.3669 33.846 25.9472 34.2658 25.9472 34.7835C25.9472 35.3013 26.3669 35.721 26.8847 35.721H30.9065V46.5536L29.1373 50.6184C27.7471 53.8123 27.0181 55.4871 24.8989 60.3559L24.3274 61.6688C24.2632 61.8164 24.2239 61.9701 24.2042 62.1252H11.4993V41.995C11.4993 41.6735 11.4071 41.3609 11.2328 41.091L7.76446 35.7208H22.5097C23.0274 35.7208 23.4472 35.301 23.4472 34.7833C23.4472 34.2655 23.0274 33.8458 22.5097 33.8458H7.38134C6.77072 33.8458 6.20997 34.1789 5.91797 34.7151C5.62597 35.2514 5.65022 35.9031 5.98147 36.4161L9.62433 42.0566V62.3336C9.62433 63.2524 10.3718 63.9999 11.2907 63.9999H57.6385C58.2022 63.9999 58.7232 63.7186 59.0321 63.2471C59.3411 62.7754 59.3913 62.1854 59.1664 61.6686ZM46.1572 5.34185C48.2653 3.23373 51.1199 2.06423 54.0619 2.04411L49.8538 6.25222C49.4877 6.61835 49.4877 7.21197 49.8538 7.57797C50.0369 7.76097 50.2769 7.85259 50.5168 7.85259C50.7567 7.85259 50.9967 7.76109 51.1798 7.57797L55.3878 3.36998C55.3675 6.31172 54.1982 9.16671 52.0899 11.2748C49.9819 13.3828 47.1271 14.5522 44.1852 14.5724L48.0861 10.6715C48.4522 10.3053 48.4522 9.71171 48.0861 9.34571C47.7198 8.97959 47.1263 8.97959 46.7602 9.34571L42.8593 13.2466C42.8796 10.3048 44.0491 7.44984 46.1572 5.34185ZM31.7509 11.1057C29.6427 8.99771 28.4732 6.1426 28.4531 3.20086L39.6558 14.4036C36.7132 14.3836 33.859 13.2138 31.7509 11.1057ZM29.7789 1.87498C32.7206 1.89498 35.5757 3.06473 37.6838 5.17285C39.792 7.28097 40.9613 10.1358 40.9817 13.0777L29.7789 1.87498ZM26.1739 62.1248L37.8035 35.4063C37.9718 35.0201 38.057 34.6105 38.057 34.189V22.2027H40.983V45.1874L40.0448 44.2492C39.6786 43.8831 39.0851 43.8831 38.719 44.2492C38.3528 44.6154 38.3528 45.209 38.719 45.575L40.983 47.839V59.7498C33.7298 59.7498 74.4715 59.7498 42.8577 59.7498V52.256C42.8788 52.2382 42.8997 52.22 42.9196 52.2001L45.7946 49.3251C46.1607 48.959 46.1607 48.3654 45.7946 47.9994C45.4283 47.6332 44.8348 47.6332 44.4687 47.9994L42.8577 49.6103V47.6817C42.8884 47.5455 42.8884 47.4041 42.8577 47.268V22.2027H45.4369C45.4369 25.6058 45.4406 34.3358 45.4406 34.3358C45.4406 34.3358 45.5417 35.0646 45.6902 35.4058L57.3201 62.1248H26.1739Z" fill="#51994B"/>
<path d="M12.2816 31.6404C13.2067 31.6404 14.1317 31.2883 14.8361 30.584C16.0153 29.4048 16.2066 27.6067 15.4112 26.2258L16.3714 25.2655C17.3404 26.4819 18.8328 27.2638 20.5053 27.2638C22.1778 27.2638 23.67 26.4819 24.639 25.2655L25.5993 26.2258C24.804 27.6067 24.9953 29.4048 26.1744 30.584C26.8787 31.2883 27.8038 31.6404 28.7289 31.6404C29.654 31.6404 30.579 31.2883 31.2834 30.584C32.6919 29.1755 32.6919 26.8837 31.2834 25.4752C30.1041 24.2959 28.3059 24.1045 26.9252 24.9L25.5567 23.5315C25.7079 23.0405 25.7897 22.5193 25.7897 21.9794C25.7897 19.3857 23.9107 17.2239 21.4428 16.7801V15.5351C22.9815 15.1211 24.1178 13.7144 24.1178 12.0467C24.1178 10.0547 22.4973 8.43421 20.5053 8.43421C18.5133 8.43421 16.8928 10.0548 16.8928 12.0467C16.8928 13.7144 18.0291 15.1211 19.5678 15.5351V16.7801C17.0999 17.2239 15.2209 19.3857 15.2209 21.9794C15.2209 22.5194 15.3027 23.0405 15.4539 23.5315L14.0854 24.9C12.7046 24.1047 10.9066 24.2959 9.7272 25.4752C8.31871 26.8837 8.31871 29.1755 9.7272 30.584C10.4314 31.2883 11.3566 31.6404 12.2816 31.6404ZM27.5003 26.801C28.1778 26.1235 29.28 26.1235 29.9575 26.801C30.6349 27.4785 30.6349 28.5808 29.9575 29.2583C29.28 29.9357 28.1778 29.9357 27.5003 29.2583C26.8228 28.5808 26.8228 27.4785 27.5003 26.801ZM18.7678 12.0467C18.7678 11.0886 19.5473 10.3092 20.5053 10.3092C21.4633 10.3092 22.2428 11.0887 22.2428 12.0467C22.2428 13.0047 21.4634 13.7842 20.5053 13.7842C19.5472 13.7842 18.7678 13.0048 18.7678 12.0467ZM20.5053 18.5701C22.3853 18.5701 23.9147 20.0994 23.9147 21.9794C23.9147 23.8594 22.3853 25.3888 20.5053 25.3888C18.6253 25.3888 17.0959 23.8593 17.0959 21.9794C17.0959 20.0996 18.6253 18.5701 20.5053 18.5701ZM11.0529 26.801C11.3917 26.4623 11.8367 26.2929 12.2816 26.2929C12.7264 26.2929 13.1714 26.4623 13.5102 26.801C14.1876 27.4785 14.1876 28.5808 13.5102 29.2583C12.8328 29.9357 11.7304 29.9357 11.0529 29.2583C10.3756 28.5808 10.3756 27.4785 11.0529 26.801Z" fill="#51994B"/>
<path d="M22.2233 44.2499H20.0368C19.5191 44.2499 19.0993 44.6696 19.0993 45.1874C19.0993 45.7051 19.5191 46.1249 20.0368 46.1249H22.2233C22.7411 46.1249 23.1608 45.7051 23.1608 45.1874C23.1608 44.6696 22.7411 44.2499 22.2233 44.2499Z" fill="#51994B"/>
<path d="M22.2233 47.967H20.0368C19.5191 47.967 19.0993 48.3867 19.0993 48.9045C19.0993 49.4222 19.5191 49.842 20.0368 49.842H22.2233C22.7411 49.842 23.1608 49.4222 23.1608 48.9045C23.1608 48.3867 22.7411 47.967 22.2233 47.967Z" fill="#51994B"/>
<path d="M22.2233 51.7023H20.0368C19.5191 51.7023 19.0993 52.1221 19.0993 52.6398C19.0993 53.1576 19.5191 53.5773 20.0368 53.5773H22.2233C22.7411 53.5773 23.1608 53.1576 23.1608 52.6398C23.1608 52.1221 22.7411 51.7023 22.2233 51.7023Z" fill="#51994B"/>
<path d="M22.2233 55.4195H20.0368C19.5191 55.4195 19.0993 55.8392 19.0993 56.357C19.0993 56.8747 19.5191 57.2945 20.0368 57.2945H22.2233C22.7411 57.2945 23.1608 56.8747 23.1608 56.357C23.1608 55.8392 22.7411 55.4195 22.2233 55.4195Z" fill="#51994B"/>
</svg>
