<svg width="16" height="16" viewBox="0 0 16 16" fill="none" xmlns="http://www.w3.org/2000/svg">
<path d="M8.0013 1.33334C6.58681 1.33334 5.23026 1.89524 4.23007 2.89543C3.22987 3.89563 2.66797 5.25218 2.66797 6.66667C2.66797 10.2667 7.36797 14.3333 7.56797 14.5067C7.68872 14.61 7.8424 14.6667 8.0013 14.6667C8.1602 14.6667 8.31388 14.61 8.43463 14.5067C8.66797 14.3333 13.3346 10.2667 13.3346 6.66667C13.3346 5.25218 12.7727 3.89563 11.7725 2.89543C10.7723 1.89524 9.41579 1.33334 8.0013 1.33334ZM8.0013 13.1C6.5813 11.7667 4.0013 8.89334 4.0013 6.66667C4.0013 5.6058 4.42273 4.58839 5.17287 3.83824C5.92302 3.0881 6.94044 2.66667 8.0013 2.66667C9.06217 2.66667 10.0796 3.0881 10.8297 3.83824C11.5799 4.58839 12.0013 5.6058 12.0013 6.66667C12.0013 8.89334 9.4213 11.7733 8.0013 13.1ZM8.0013 4C7.47389 4 6.95831 4.1564 6.51978 4.44942C6.08125 4.74243 5.73946 5.15891 5.53762 5.64618C5.33579 6.13345 5.28298 6.66963 5.38587 7.18691C5.48877 7.70419 5.74274 8.17935 6.11568 8.55229C6.48862 8.92523 6.96378 9.1792 7.48106 9.2821C7.99834 9.38499 8.53452 9.33218 9.02179 9.13035C9.50906 8.92851 9.92554 8.58672 10.2186 8.14819C10.5116 7.70966 10.668 7.19409 10.668 6.66667C10.668 5.95943 10.387 5.28115 9.88692 4.78105C9.38682 4.28095 8.70855 4 8.0013 4ZM8.0013 8C7.73759 8 7.47981 7.9218 7.26054 7.7753C7.04128 7.62879 6.87038 7.42055 6.76946 7.17691C6.66855 6.93328 6.64214 6.66519 6.69359 6.40655C6.74504 6.14791 6.87202 5.91033 7.05849 5.72386C7.24496 5.53739 7.48254 5.4104 7.74118 5.35896C7.99982 5.30751 8.26791 5.33391 8.51155 5.43483C8.75518 5.53575 8.96342 5.70664 9.10993 5.92591C9.25644 6.14517 9.33463 6.40296 9.33463 6.66667C9.33463 7.02029 9.19416 7.35943 8.94411 7.60948C8.69406 7.85953 8.35492 8 8.0013 8Z" fill="black"/>
</svg>
