<svg width="16" height="16" viewBox="0 0 16 16" fill="none" xmlns="http://www.w3.org/2000/svg">
<path d="M12.9411 8.66667C12.7944 8.66667 12.6411 8.62 12.4944 8.58667C12.1976 8.52031 11.9058 8.43343 11.6211 8.32667C11.3118 8.21415 10.9719 8.22 10.6666 8.34307C10.3614 8.46615 10.1125 8.69776 9.96776 8.99333L9.82109 9.3C9.17364 8.9328 8.57551 8.48476 8.04109 7.96667C7.52299 7.43225 7.07496 6.83412 6.70776 6.18667L7.01442 6.04667C7.31 5.90194 7.54161 5.65302 7.66469 5.34779C7.78776 5.04257 7.7936 4.70261 7.68109 4.39333C7.57522 4.10602 7.48836 3.81205 7.42109 3.51333C7.38776 3.36667 7.36109 3.21333 7.34109 3.06667C7.26013 2.59708 7.01417 2.17183 6.64751 1.86749C6.28084 1.56316 5.81756 1.39974 5.34109 1.40667H3.33442C3.05259 1.4063 2.77386 1.4655 2.5165 1.58039C2.25915 1.69528 2.02898 1.86326 1.84109 2.07333C1.6493 2.2891 1.5065 2.54383 1.42249 2.82002C1.33849 3.09621 1.31526 3.38732 1.35442 3.67333C1.71682 6.44809 2.98456 9.02577 4.96109 11.0067C6.94199 12.9832 9.51967 14.2509 12.2944 14.6133C12.381 14.6199 12.4679 14.6199 12.5544 14.6133C13.046 14.6141 13.5207 14.4337 13.8878 14.1067C14.0978 13.9188 14.2658 13.6886 14.3807 13.4313C14.4956 13.1739 14.5548 12.8952 14.5544 12.6133V10.6133C14.5508 10.1527 14.3883 9.70741 14.0944 9.35273C13.8004 8.99805 13.3931 8.75571 12.9411 8.66667ZM13.2678 12.6667C13.2675 12.7597 13.2479 12.8516 13.21 12.9366C13.1721 13.0216 13.1168 13.0977 13.0478 13.16C12.9747 13.2266 12.8877 13.2761 12.7932 13.3049C12.6986 13.3337 12.5989 13.3411 12.5011 13.3267C10.0133 13.0018 7.70126 11.868 5.92109 10.1C4.13941 8.31831 2.99578 5.99824 2.66776 3.5C2.65328 3.40222 2.66072 3.30245 2.68954 3.2079C2.71837 3.11335 2.76786 3.0264 2.83442 2.95333C2.89751 2.88343 2.97468 2.82769 3.06086 2.78977C3.14704 2.75185 3.24027 2.73262 3.33442 2.73333H5.33442C5.48853 2.72957 5.63918 2.77932 5.76073 2.87413C5.88229 2.96894 5.96722 3.10294 6.00109 3.25333C6.00109 3.43333 6.06109 3.62 6.10109 3.8C6.17814 4.14924 6.28064 4.49238 6.40776 4.82667L5.47442 5.26667C5.314 5.34031 5.18933 5.47457 5.12776 5.64C5.06108 5.80231 5.06108 5.98436 5.12776 6.14667C6.08723 8.20184 7.73925 9.85386 9.79442 10.8133C9.95673 10.88 10.1388 10.88 10.3011 10.8133C10.4665 10.7518 10.6008 10.6271 10.6744 10.4667L11.0944 9.53333C11.4384 9.65875 11.7902 9.76119 12.1478 9.84C12.3211 9.88 12.5078 9.91333 12.6878 9.94C12.8381 9.97387 12.9721 10.0588 13.067 10.1804C13.1618 10.3019 13.2115 10.4526 13.2078 10.6067L13.2678 12.6667ZM9.33442 1.33333C9.18109 1.33333 9.02109 1.33333 8.86776 1.33333C8.69095 1.34836 8.52735 1.43301 8.41295 1.56866C8.29855 1.70431 8.24273 1.87985 8.25776 2.05667C8.27279 2.23348 8.35744 2.39708 8.49309 2.51147C8.62874 2.62587 8.80428 2.68169 8.98109 2.66667H9.33442C10.3953 2.66667 11.4127 3.08809 12.1629 3.83824C12.913 4.58838 13.3344 5.6058 13.3344 6.66667C13.3344 6.78667 13.3344 6.9 13.3344 7.02C13.3196 7.19587 13.3752 7.37043 13.4889 7.5054C13.6027 7.64037 13.7653 7.72473 13.9411 7.74H13.9944C14.1613 7.74068 14.3224 7.67873 14.4458 7.56641C14.5693 7.45408 14.6461 7.29955 14.6611 7.13333C14.6611 6.98 14.6611 6.82 14.6611 6.66667C14.6611 5.25333 14.1001 3.89779 13.1014 2.89778C12.1026 1.89778 10.7478 1.3351 9.33442 1.33333ZM10.6678 6.66667C10.6678 6.84348 10.738 7.01305 10.863 7.13807C10.988 7.26309 11.1576 7.33333 11.3344 7.33333C11.5112 7.33333 11.6808 7.26309 11.8058 7.13807C11.9309 7.01305 12.0011 6.84348 12.0011 6.66667C12.0011 5.95942 11.7201 5.28114 11.22 4.78105C10.7199 4.28095 10.0417 4 9.33442 4C9.15761 4 8.98804 4.07024 8.86302 4.19526C8.738 4.32029 8.66776 4.48985 8.66776 4.66667C8.66776 4.84348 8.738 5.01305 8.86302 5.13807C8.98804 5.26309 9.15761 5.33333 9.33442 5.33333C9.68805 5.33333 10.0272 5.47381 10.2772 5.72386C10.5273 5.97391 10.6678 6.31304 10.6678 6.66667Z" fill="black"/>
</svg>
