<svg width="16" height="16" viewBox="0 0 16 16" fill="none" xmlns="http://www.w3.org/2000/svg">
<path d="M8.50684 9.576C8.27484 9.576 8.05884 9.52 7.85884 9.408C7.65884 9.288 7.49884 9.132 7.37884 8.94C7.26684 8.74 7.21084 8.524 7.21084 8.292C7.21084 8.052 7.26684 7.836 7.37884 7.644C7.49884 7.444 7.65884 7.288 7.85884 7.176C8.05884 7.056 8.27484 6.996 8.50684 6.996C8.74684 6.996 8.96284 7.056 9.15484 7.176C9.34684 7.288 9.49884 7.444 9.61084 7.644C9.73084 7.836 9.79084 8.052 9.79084 8.292C9.79084 8.524 9.73084 8.74 9.61084 8.94C9.49884 9.132 9.34684 9.288 9.15484 9.408C8.96284 9.52 8.74684 9.576 8.50684 9.576Z" fill="black" fill-opacity="0.64"/>
</svg>
