<svg width="56" height="57" viewBox="0 0 56 57" fill="none" xmlns="http://www.w3.org/2000/svg">
<rect width="56" height="56" transform="translate(0 0.0197754)" fill="#007A7A" fill-opacity="0.01"/>
<path fill-rule="evenodd" clip-rule="evenodd" d="M12.5602 34.0398C7.0675 32.9758 2.9165 28.1365 2.9165 22.3358C2.9165 15.7558 8.2575 10.4148 14.8375 10.4148C21.4175 10.4148 26.7585 15.7558 26.7585 22.3358C26.7585 31.1045 23.8045 36.5505 20.3372 39.9548C15.0288 45.1675 8.38117 45.6201 8.38117 45.6201C7.7045 45.6691 7.06284 45.3215 6.7315 44.7311C6.39784 44.1431 6.4375 43.4128 6.8295 42.8621C6.8295 42.8621 9.98884 38.4148 11.9582 35.1248C12.1635 34.7795 12.3712 34.3991 12.5602 34.0398Z" fill="#007A7A"/>
<path fill-rule="evenodd" clip-rule="evenodd" d="M38.8849 34.0398C33.3922 32.9758 29.2412 28.1365 29.2412 22.3358C29.2412 15.7558 34.5822 10.4148 41.1622 10.4148C47.7422 10.4148 53.0832 15.7558 53.0832 22.3358C53.0832 31.1045 50.1292 36.5505 46.6619 39.9548C41.3535 45.1675 34.7059 45.6201 34.7059 45.6201C34.0292 45.6691 33.3875 45.3215 33.0562 44.7311C32.7249 44.1431 32.7622 43.4128 33.1542 42.8621C33.1542 42.8621 36.3135 38.4148 38.2829 35.1248C38.4882 34.7795 38.6959 34.3991 38.8849 34.0398Z" fill="#007A7A"/>
</svg>
