<svg width="16" height="16" viewBox="0 0 16 16" fill="none" xmlns="http://www.w3.org/2000/svg">
<path d="M8.37555 7.42265L8.87555 7.13397L11.917 5.37799C12.0764 5.28594 12.2803 5.34057 12.3723 5.5C12.4644 5.65943 12.4098 5.86329 12.2503 5.95534L9.20888 7.71132L8.70888 8L9.20888 8.28867L12.2503 10.0447C12.4098 10.1367 12.4644 10.3406 12.3723 10.5C12.2803 10.6594 12.0764 10.7141 11.917 10.622L8.87555 8.86602L8.37555 8.57734V9.15469V12.6667C8.37555 12.8508 8.22631 13 8.04221 13C7.85812 13 7.70888 12.8508 7.70888 12.6667V9.1547V8.57735L7.20888 8.86602L4.16743 10.622L4.3341 10.9107L4.16743 10.622C4.008 10.7141 3.80413 10.6594 3.71209 10.5L3.42341 10.6667L3.71209 10.5C3.62004 10.3406 3.67466 10.1367 3.8341 10.0447L6.87555 8.28867L7.37555 8L6.87555 7.71132L3.8341 5.95534L3.67379 6.23301L3.8341 5.95534C3.67467 5.86329 3.62004 5.65943 3.71209 5.5C3.80414 5.34057 4.008 5.28594 4.16743 5.37799L7.20888 7.13397L7.70888 7.42264V6.84529V3.33333C7.70888 3.14924 7.85812 3 8.04221 3C8.22631 3 8.37555 3.14924 8.37555 3.33333V6.8453V7.42265Z" fill="#DD6600" stroke="#DD6600" stroke-width="0.666667"/>
</svg>
